%TF.GenerationSoftware,KiCad,Pcbnew,9.0.5*%
%TF.CreationDate,2026-04-02T00:41:18+03:00*%
%TF.ProjectId,mxr phase 45,6d787220-7068-4617-9365-2034352e6b69,rev?*%
%TF.SameCoordinates,Original*%
%TF.FileFunction,Soldermask,Bot*%
%TF.FilePolarity,Negative*%
%FSLAX46Y46*%
G04 Gerber Fmt 4.6, Leading zero omitted, Abs format (unit mm)*
G04 Created by KiCad (PCBNEW 9.0.5) date 2026-04-02 00:41:18*
%MOMM*%
%LPD*%
G01*
G04 APERTURE LIST*
G04 Aperture macros list*
%AMRoundRect*
0 Rectangle with rounded corners*
0 $1 Rounding radius*
0 $2 $3 $4 $5 $6 $7 $8 $9 X,Y pos of 4 corners*
0 Add a 4 corners polygon primitive as box body*
4,1,4,$2,$3,$4,$5,$6,$7,$8,$9,$2,$3,0*
0 Add four circle primitives for the rounded corners*
1,1,$1+$1,$2,$3*
1,1,$1+$1,$4,$5*
1,1,$1+$1,$6,$7*
1,1,$1+$1,$8,$9*
0 Add four rect primitives between the rounded corners*
20,1,$1+$1,$2,$3,$4,$5,0*
20,1,$1+$1,$4,$5,$6,$7,0*
20,1,$1+$1,$6,$7,$8,$9,0*
20,1,$1+$1,$8,$9,$2,$3,0*%
G04 Aperture macros list end*
%ADD10C,1.600000*%
%ADD11R,1.700000X1.700000*%
%ADD12C,1.700000*%
%ADD13RoundRect,0.250000X0.550000X-0.550000X0.550000X0.550000X-0.550000X0.550000X-0.550000X-0.550000X0*%
%ADD14RoundRect,0.450000X-1.550000X-1.050000X1.550000X-1.050000X1.550000X1.050000X-1.550000X1.050000X0*%
%ADD15RoundRect,0.250000X-0.550000X-0.550000X0.550000X-0.550000X0.550000X0.550000X-0.550000X0.550000X0*%
%ADD16C,1.620000*%
%ADD17RoundRect,0.250000X0.550000X0.550000X-0.550000X0.550000X-0.550000X-0.550000X0.550000X-0.550000X0*%
%ADD18R,1.050000X1.500000*%
%ADD19O,1.050000X1.500000*%
%ADD20RoundRect,0.249999X0.850001X-0.850001X0.850001X0.850001X-0.850001X0.850001X-0.850001X-0.850001X0*%
%ADD21C,2.200000*%
G04 APERTURE END LIST*
D10*
%TO.C,R10*%
X152120000Y-90000000D03*
X144500000Y-90000000D03*
%TD*%
%TO.C,R24*%
X124580000Y-63500000D03*
X114420000Y-63500000D03*
%TD*%
%TO.C,C2*%
X107500000Y-110250000D03*
X107500000Y-102750000D03*
%TD*%
%TO.C,R22*%
X114420000Y-60500000D03*
X124580000Y-60500000D03*
%TD*%
%TO.C,R11*%
X151120000Y-93500000D03*
X143500000Y-93500000D03*
%TD*%
D11*
%TO.C,Power1*%
X127725000Y-51500000D03*
D12*
X130265000Y-51500000D03*
%TD*%
D13*
%TO.C,C8*%
X140500000Y-63161395D03*
D10*
X140500000Y-60661395D03*
%TD*%
%TO.C,R5*%
X122380000Y-84500000D03*
X130000000Y-84500000D03*
%TD*%
D11*
%TO.C,In1*%
X154775000Y-52000000D03*
D12*
X152235000Y-52000000D03*
%TD*%
D14*
%TO.C,U3*%
X123700000Y-110000000D03*
X129000000Y-110000000D03*
X134300000Y-110000000D03*
X123700000Y-114800000D03*
X129000000Y-114800000D03*
X134300000Y-114800000D03*
X123700000Y-119600000D03*
X129000000Y-119600000D03*
X134300000Y-119600000D03*
%TD*%
D11*
%TO.C,Out1*%
X102500000Y-51500000D03*
D12*
X105040000Y-51500000D03*
%TD*%
D10*
%TO.C,R16*%
X143380000Y-118600000D03*
X153540000Y-118600000D03*
%TD*%
%TO.C,R7*%
X153500000Y-122000000D03*
X143340000Y-122000000D03*
%TD*%
%TO.C,R3*%
X119000000Y-110120000D03*
X119000000Y-102500000D03*
%TD*%
D15*
%TO.C,U1*%
X110690000Y-72190000D03*
D10*
X110690000Y-74730000D03*
X110690000Y-77270000D03*
X110690000Y-79810000D03*
X118310000Y-79810000D03*
X118310000Y-77270000D03*
X118310000Y-74730000D03*
X118310000Y-72190000D03*
%TD*%
D16*
%TO.C,R_trim1*%
X138500000Y-56495000D03*
X143500000Y-53995000D03*
X138500000Y-51495000D03*
%TD*%
D10*
%TO.C,R14*%
X117500000Y-100080000D03*
X117500000Y-89920000D03*
%TD*%
%TO.C,C1*%
X122500000Y-94500000D03*
X130000000Y-94500000D03*
%TD*%
%TO.C,R2*%
X107500000Y-100080000D03*
X107500000Y-89920000D03*
%TD*%
%TO.C,R6*%
X140880000Y-101000000D03*
X148500000Y-101000000D03*
%TD*%
%TO.C,C4*%
X146500000Y-69000000D03*
X146500000Y-61500000D03*
%TD*%
D17*
%TO.C,C10*%
X122500000Y-54500000D03*
D10*
X120000000Y-54500000D03*
%TD*%
%TO.C,R4*%
X111500000Y-110580000D03*
X111500000Y-100420000D03*
%TD*%
%TO.C,R8*%
X144920000Y-85500000D03*
X155080000Y-85500000D03*
%TD*%
D13*
%TO.C,D1*%
X134900000Y-63110000D03*
D10*
X134900000Y-55490000D03*
%TD*%
%TO.C,LED_R1*%
X133310000Y-102000000D03*
X125690000Y-102000000D03*
%TD*%
D11*
%TO.C,Q2*%
X147540000Y-107500000D03*
D12*
X145000000Y-107500000D03*
X142460000Y-107500000D03*
%TD*%
D10*
%TO.C,C7*%
X121000000Y-76500000D03*
X128500000Y-76500000D03*
%TD*%
%TO.C,R15*%
X127500000Y-55190000D03*
X127500000Y-62810000D03*
%TD*%
%TO.C,C5*%
X115500000Y-110060000D03*
X115500000Y-102560000D03*
%TD*%
%TO.C,R21*%
X131500000Y-77080000D03*
X131500000Y-66920000D03*
%TD*%
D11*
%TO.C,Potentiometer1*%
X122460000Y-67000000D03*
D12*
X125000000Y-67000000D03*
X127540000Y-67000000D03*
%TD*%
D10*
%TO.C,R1*%
X122690000Y-91000000D03*
X130310000Y-91000000D03*
%TD*%
%TO.C,R20*%
X146500000Y-59120000D03*
X146500000Y-51500000D03*
%TD*%
D15*
%TO.C,U2*%
X133190000Y-88690000D03*
D10*
X133190000Y-91230000D03*
X133190000Y-93770000D03*
X133190000Y-96310000D03*
X140810000Y-96310000D03*
X140810000Y-93770000D03*
X140810000Y-91230000D03*
X140810000Y-88690000D03*
%TD*%
%TO.C,C3*%
X133250000Y-84000000D03*
X140750000Y-84000000D03*
%TD*%
D18*
%TO.C,Q5*%
X154500000Y-111000000D03*
D19*
X153230000Y-111000000D03*
X151960000Y-111000000D03*
%TD*%
D11*
%TO.C,Q3*%
X138460000Y-79500000D03*
D12*
X141000000Y-79500000D03*
X143540000Y-79500000D03*
%TD*%
D10*
%TO.C,R25*%
X143690000Y-96500000D03*
X151310000Y-96500000D03*
%TD*%
%TO.C,R19*%
X131080000Y-80000000D03*
X120920000Y-80000000D03*
%TD*%
D20*
%TO.C,D2*%
X131000000Y-62810000D03*
D21*
X131000000Y-55190000D03*
%TD*%
M02*
