%TF.GenerationSoftware,KiCad,Pcbnew,9.0.5*%
%TF.CreationDate,2026-04-02T00:41:17+03:00*%
%TF.ProjectId,mxr phase 45,6d787220-7068-4617-9365-2034352e6b69,rev?*%
%TF.SameCoordinates,Original*%
%TF.FileFunction,Copper,L1,Top*%
%TF.FilePolarity,Positive*%
%FSLAX46Y46*%
G04 Gerber Fmt 4.6, Leading zero omitted, Abs format (unit mm)*
G04 Created by KiCad (PCBNEW 9.0.5) date 2026-04-02 00:41:17*
%MOMM*%
%LPD*%
G01*
G04 APERTURE LIST*
G04 Aperture macros list*
%AMRoundRect*
0 Rectangle with rounded corners*
0 $1 Rounding radius*
0 $2 $3 $4 $5 $6 $7 $8 $9 X,Y pos of 4 corners*
0 Add a 4 corners polygon primitive as box body*
4,1,4,$2,$3,$4,$5,$6,$7,$8,$9,$2,$3,0*
0 Add four circle primitives for the rounded corners*
1,1,$1+$1,$2,$3*
1,1,$1+$1,$4,$5*
1,1,$1+$1,$6,$7*
1,1,$1+$1,$8,$9*
0 Add four rect primitives between the rounded corners*
20,1,$1+$1,$2,$3,$4,$5,0*
20,1,$1+$1,$4,$5,$6,$7,0*
20,1,$1+$1,$6,$7,$8,$9,0*
20,1,$1+$1,$8,$9,$2,$3,0*%
G04 Aperture macros list end*
%TA.AperFunction,ComponentPad*%
%ADD10C,1.600000*%
%TD*%
%TA.AperFunction,ComponentPad*%
%ADD11R,1.700000X1.700000*%
%TD*%
%TA.AperFunction,ComponentPad*%
%ADD12C,1.700000*%
%TD*%
%TA.AperFunction,ComponentPad*%
%ADD13RoundRect,0.250000X0.550000X-0.550000X0.550000X0.550000X-0.550000X0.550000X-0.550000X-0.550000X0*%
%TD*%
%TA.AperFunction,ComponentPad*%
%ADD14RoundRect,0.450000X-1.550000X-1.050000X1.550000X-1.050000X1.550000X1.050000X-1.550000X1.050000X0*%
%TD*%
%TA.AperFunction,ComponentPad*%
%ADD15RoundRect,0.250000X-0.550000X-0.550000X0.550000X-0.550000X0.550000X0.550000X-0.550000X0.550000X0*%
%TD*%
%TA.AperFunction,ComponentPad*%
%ADD16C,1.620000*%
%TD*%
%TA.AperFunction,ComponentPad*%
%ADD17RoundRect,0.250000X0.550000X0.550000X-0.550000X0.550000X-0.550000X-0.550000X0.550000X-0.550000X0*%
%TD*%
%TA.AperFunction,ComponentPad*%
%ADD18R,1.050000X1.500000*%
%TD*%
%TA.AperFunction,ComponentPad*%
%ADD19O,1.050000X1.500000*%
%TD*%
%TA.AperFunction,SMDPad,CuDef*%
%ADD20RoundRect,0.218750X0.256250X-0.218750X0.256250X0.218750X-0.256250X0.218750X-0.256250X-0.218750X0*%
%TD*%
%TA.AperFunction,ComponentPad*%
%ADD21RoundRect,0.249999X0.850001X-0.850001X0.850001X0.850001X-0.850001X0.850001X-0.850001X-0.850001X0*%
%TD*%
%TA.AperFunction,ComponentPad*%
%ADD22C,2.200000*%
%TD*%
%TA.AperFunction,Conductor*%
%ADD23C,0.200000*%
%TD*%
G04 APERTURE END LIST*
D10*
%TO.P,R10,1*%
%TO.N,Net-(U2B--)*%
X152120000Y-90000000D03*
%TO.P,R10,2*%
%TO.N,Net-(R10-Pad2)*%
X144500000Y-90000000D03*
%TD*%
%TO.P,R24,1*%
%TO.N,Net-(C10-Pad1)*%
X124580000Y-63500000D03*
%TO.P,R24,2*%
%TO.N,Net-(U1B--)*%
X114420000Y-63500000D03*
%TD*%
%TO.P,C2,1*%
%TO.N,Net-(Q5-C)*%
X107500000Y-110250000D03*
%TO.P,C2,2*%
%TO.N,Effect_out*%
X107500000Y-102750000D03*
%TD*%
%TO.P,R22,1*%
%TO.N,Vbias*%
X114420000Y-60500000D03*
%TO.P,R22,2*%
%TO.N,Net-(C10-Pad1)*%
X124580000Y-60500000D03*
%TD*%
%TO.P,R11,1*%
%TO.N,Net-(C3-Pad1)*%
X151120000Y-93500000D03*
%TO.P,R11,2*%
%TO.N,Net-(U2B--)*%
X143500000Y-93500000D03*
%TD*%
D11*
%TO.P,Power1,1*%
%TO.N,+9V*%
X127725000Y-51500000D03*
D12*
%TO.P,Power1,2*%
%TO.N,GND*%
X130265000Y-51500000D03*
%TD*%
D13*
%TO.P,C8,1*%
%TO.N,Vref*%
X140500000Y-63161395D03*
D10*
%TO.P,C8,2*%
%TO.N,GND*%
X140500000Y-60661395D03*
%TD*%
%TO.P,R5,1*%
%TO.N,Net-(U2A--)*%
X122380000Y-84500000D03*
%TO.P,R5,2*%
%TO.N,Net-(C3-Pad1)*%
X130000000Y-84500000D03*
%TD*%
D11*
%TO.P,In1,1*%
%TO.N,Jack_in*%
X154775000Y-52000000D03*
D12*
%TO.P,In1,2*%
%TO.N,GND*%
X152235000Y-52000000D03*
%TD*%
D14*
%TO.P,U3,1,1*%
%TO.N,Effect_in*%
X123700000Y-110000000D03*
%TO.P,U3,2,2*%
%TO.N,Effect_out*%
X129000000Y-110000000D03*
%TO.P,U3,3,3*%
%TO.N,Led-*%
X134300000Y-110000000D03*
%TO.P,U3,4,4*%
%TO.N,Jack_in*%
X123700000Y-114800000D03*
%TO.P,U3,5,5*%
%TO.N,Jack_out*%
X129000000Y-114800000D03*
%TO.P,U3,6,6*%
%TO.N,GND*%
X134300000Y-114800000D03*
%TO.P,U3,7,7*%
%TO.N,Net-(U3-Pad7)*%
X123700000Y-119600000D03*
%TO.P,U3,8,8*%
X129000000Y-119600000D03*
%TO.P,U3,9,9*%
%TO.N,unconnected-(U3-Pad9)*%
X134300000Y-119600000D03*
%TD*%
D11*
%TO.P,Out1,1*%
%TO.N,Jack_out*%
X102500000Y-51500000D03*
D12*
%TO.P,Out1,2*%
%TO.N,GND*%
X105040000Y-51500000D03*
%TD*%
D10*
%TO.P,R16,1*%
%TO.N,Net-(U1A--)*%
X143380000Y-118600000D03*
%TO.P,R16,2*%
%TO.N,Net-(Q5-B)*%
X153540000Y-118600000D03*
%TD*%
%TO.P,R7,1*%
%TO.N,Net-(Q5-B)*%
X153500000Y-122000000D03*
%TO.P,R7,2*%
%TO.N,Net-(Q5-C)*%
X143340000Y-122000000D03*
%TD*%
%TO.P,R3,1*%
%TO.N,Effect_in*%
X119000000Y-110120000D03*
%TO.P,R3,2*%
%TO.N,Net-(C5-Pad1)*%
X119000000Y-102500000D03*
%TD*%
D15*
%TO.P,U1,1*%
%TO.N,Net-(U1A--)*%
X110690000Y-72190000D03*
D10*
%TO.P,U1,2,-*%
X110690000Y-74730000D03*
%TO.P,U1,3,+*%
%TO.N,Net-(U1A-+)*%
X110690000Y-77270000D03*
%TO.P,U1,4,V-*%
%TO.N,GND*%
X110690000Y-79810000D03*
%TO.P,U1,5,+*%
%TO.N,Net-(U1B-+)*%
X118310000Y-79810000D03*
%TO.P,U1,6,-*%
%TO.N,Net-(U1B--)*%
X118310000Y-77270000D03*
%TO.P,U1,7*%
%TO.N,Net-(C7-Pad2)*%
X118310000Y-74730000D03*
%TO.P,U1,8,V+*%
%TO.N,+9V*%
X118310000Y-72190000D03*
%TD*%
D16*
%TO.P,R_trim1,1,1*%
%TO.N,Vref*%
X138500000Y-56495000D03*
%TO.P,R_trim1,2,2*%
%TO.N,Net-(R20-Pad2)*%
X143500000Y-53995000D03*
%TO.P,R_trim1,3,3*%
%TO.N,GND*%
X138500000Y-51495000D03*
%TD*%
D10*
%TO.P,R14,1*%
%TO.N,Net-(U1A-+)*%
X117500000Y-100080000D03*
%TO.P,R14,2*%
%TO.N,Vref*%
X117500000Y-89920000D03*
%TD*%
%TO.P,C1,1*%
%TO.N,Net-(U1A--)*%
X122500000Y-94500000D03*
%TO.P,C1,2*%
%TO.N,Net-(Q2-S)*%
X130000000Y-94500000D03*
%TD*%
%TO.P,R2,1*%
%TO.N,Effect_out*%
X107500000Y-100080000D03*
%TO.P,R2,2*%
%TO.N,GND*%
X107500000Y-89920000D03*
%TD*%
%TO.P,R6,1*%
%TO.N,Net-(Q2-S)*%
X140880000Y-101000000D03*
%TO.P,R6,2*%
%TO.N,Vref*%
X148500000Y-101000000D03*
%TD*%
%TO.P,C4,1*%
%TO.N,Vref*%
X146500000Y-69000000D03*
%TO.P,C4,2*%
%TO.N,Vbias*%
X146500000Y-61500000D03*
%TD*%
D17*
%TO.P,C10,1*%
%TO.N,Net-(C10-Pad1)*%
X122500000Y-54500000D03*
D10*
%TO.P,C10,2*%
%TO.N,GND*%
X120000000Y-54500000D03*
%TD*%
%TO.P,R4,1*%
%TO.N,Net-(Q5-C)*%
X111500000Y-110580000D03*
%TO.P,R4,2*%
%TO.N,GND*%
X111500000Y-100420000D03*
%TD*%
%TO.P,R8,1*%
%TO.N,Net-(R10-Pad2)*%
X144920000Y-85500000D03*
%TO.P,R8,2*%
%TO.N,Net-(Q5-B)*%
X155080000Y-85500000D03*
%TD*%
D13*
%TO.P,D1,1,K*%
%TO.N,Vref*%
X134900000Y-63110000D03*
D10*
%TO.P,D1,2,A*%
%TO.N,GND*%
X134900000Y-55490000D03*
%TD*%
%TO.P,LED_R1,1*%
%TO.N,Net-(D3-A)*%
X133310000Y-102000000D03*
%TO.P,LED_R1,2*%
%TO.N,+9V*%
X125690000Y-102000000D03*
%TD*%
D11*
%TO.P,Q2,1,D*%
%TO.N,Vref*%
X147540000Y-107500000D03*
D12*
%TO.P,Q2,2,S*%
%TO.N,Net-(Q2-S)*%
X145000000Y-107500000D03*
%TO.P,Q2,3,G*%
%TO.N,Vbias*%
X142460000Y-107500000D03*
%TD*%
D10*
%TO.P,C7,1*%
%TO.N,Net-(U1B--)*%
X121000000Y-76500000D03*
%TO.P,C7,2*%
%TO.N,Net-(C7-Pad2)*%
X128500000Y-76500000D03*
%TD*%
%TO.P,R15,1*%
%TO.N,+9V*%
X127500000Y-55190000D03*
%TO.P,R15,2*%
%TO.N,Vref*%
X127500000Y-62810000D03*
%TD*%
%TO.P,C5,1*%
%TO.N,Net-(C5-Pad1)*%
X115500000Y-110060000D03*
%TO.P,C5,2*%
%TO.N,Net-(U1A-+)*%
X115500000Y-102560000D03*
%TD*%
%TO.P,R21,1*%
%TO.N,Net-(U1B-+)*%
X131500000Y-77080000D03*
%TO.P,R21,2*%
%TO.N,Net-(C7-Pad2)*%
X131500000Y-66920000D03*
%TD*%
D11*
%TO.P,Potentiometer1,1,1*%
%TO.N,Net-(C10-Pad1)*%
X122460000Y-67000000D03*
D12*
%TO.P,Potentiometer1,2,2*%
X125000000Y-67000000D03*
%TO.P,Potentiometer1,3,3*%
%TO.N,Net-(C7-Pad2)*%
X127540000Y-67000000D03*
%TD*%
D10*
%TO.P,R1,1*%
%TO.N,Net-(U1A--)*%
X122690000Y-91000000D03*
%TO.P,R1,2*%
%TO.N,Net-(U2A--)*%
X130310000Y-91000000D03*
%TD*%
%TO.P,R20,1*%
%TO.N,Vbias*%
X146500000Y-59120000D03*
%TO.P,R20,2*%
%TO.N,Net-(R20-Pad2)*%
X146500000Y-51500000D03*
%TD*%
D15*
%TO.P,U2,1*%
%TO.N,Net-(C3-Pad1)*%
X133190000Y-88690000D03*
D10*
%TO.P,U2,2,-*%
%TO.N,Net-(U2A--)*%
X133190000Y-91230000D03*
%TO.P,U2,3,+*%
%TO.N,Net-(Q2-S)*%
X133190000Y-93770000D03*
%TO.P,U2,4,V-*%
%TO.N,GND*%
X133190000Y-96310000D03*
%TO.P,U2,5,+*%
%TO.N,Net-(Q3-S)*%
X140810000Y-96310000D03*
%TO.P,U2,6,-*%
%TO.N,Net-(U2B--)*%
X140810000Y-93770000D03*
%TO.P,U2,7*%
%TO.N,Net-(R10-Pad2)*%
X140810000Y-91230000D03*
%TO.P,U2,8,V+*%
%TO.N,+9V*%
X140810000Y-88690000D03*
%TD*%
%TO.P,C3,1*%
%TO.N,Net-(C3-Pad1)*%
X133250000Y-84000000D03*
%TO.P,C3,2*%
%TO.N,Net-(Q3-S)*%
X140750000Y-84000000D03*
%TD*%
D18*
%TO.P,Q5,1,E*%
%TO.N,Vref*%
X154500000Y-111000000D03*
D19*
%TO.P,Q5,2,B*%
%TO.N,Net-(Q5-B)*%
X153230000Y-111000000D03*
%TO.P,Q5,3,C*%
%TO.N,Net-(Q5-C)*%
X151960000Y-111000000D03*
%TD*%
D20*
%TO.P,D3,1,K*%
%TO.N,Led-*%
X136000000Y-102787500D03*
%TO.P,D3,2,A*%
%TO.N,Net-(D3-A)*%
X136000000Y-101212500D03*
%TD*%
D11*
%TO.P,Q3,1,D*%
%TO.N,Vref*%
X138460000Y-79500000D03*
D12*
%TO.P,Q3,2,S*%
%TO.N,Net-(Q3-S)*%
X141000000Y-79500000D03*
%TO.P,Q3,3,G*%
%TO.N,Vbias*%
X143540000Y-79500000D03*
%TD*%
D10*
%TO.P,R25,1*%
%TO.N,Net-(Q3-S)*%
X143690000Y-96500000D03*
%TO.P,R25,2*%
%TO.N,Vref*%
X151310000Y-96500000D03*
%TD*%
%TO.P,R19,1*%
%TO.N,Vref*%
X131080000Y-80000000D03*
%TO.P,R19,2*%
%TO.N,Net-(U1B-+)*%
X120920000Y-80000000D03*
%TD*%
D21*
%TO.P,D2,1,K*%
%TO.N,Vref*%
X131000000Y-62810000D03*
D22*
%TO.P,D2,2,A*%
%TO.N,GND*%
X131000000Y-55190000D03*
%TD*%
D23*
%TO.N,Net-(Q3-S)*%
X140750000Y-84000000D02*
X140750000Y-79750000D01*
X139709000Y-85041000D02*
X139709000Y-95209000D01*
X140750000Y-84000000D02*
X139709000Y-85041000D01*
X139709000Y-95209000D02*
X140810000Y-96310000D01*
X143690000Y-96500000D02*
X141000000Y-96500000D01*
X140750000Y-79750000D02*
X141000000Y-79500000D01*
X141000000Y-96500000D02*
X140810000Y-96310000D01*
%TO.N,Vref*%
X152043950Y-96589000D02*
X151399000Y-97233950D01*
%TO.N,Vbias*%
X117702000Y-53399000D02*
X139899000Y-53399000D01*
X114420000Y-56681000D02*
X117702000Y-53399000D01*
X143540000Y-79500000D02*
X148500000Y-74540000D01*
X154000000Y-89960000D02*
X143540000Y-79500000D01*
X139899000Y-53399000D02*
X140500000Y-54000000D01*
X114420000Y-60500000D02*
X114420000Y-56681000D01*
X141380000Y-54000000D02*
X146500000Y-59120000D01*
X146500000Y-59120000D02*
X146500000Y-61500000D01*
X140500000Y-54000000D02*
X141380000Y-54000000D01*
X148500000Y-74540000D02*
X148500000Y-61500000D01*
X154000000Y-108901000D02*
X143861000Y-108901000D01*
X143861000Y-108901000D02*
X142460000Y-107500000D01*
X154000000Y-108901000D02*
X154000000Y-89960000D01*
X148500000Y-61500000D02*
X146500000Y-61500000D01*
%TO.N,Net-(R20-Pad2)*%
X143500000Y-53995000D02*
X145995000Y-51500000D01*
X145995000Y-51500000D02*
X146500000Y-51500000D01*
%TO.N,Net-(D3-A)*%
X134097500Y-101212500D02*
X133310000Y-102000000D01*
X136000000Y-101212500D02*
X134097500Y-101212500D01*
%TO.N,Net-(U2B--)*%
X143230000Y-93770000D02*
X143500000Y-93500000D01*
X140810000Y-93770000D02*
X143230000Y-93770000D01*
X144000000Y-93500000D02*
X147500000Y-90000000D01*
X147500000Y-90000000D02*
X152120000Y-90000000D01*
X143500000Y-93500000D02*
X144000000Y-93500000D01*
%TO.N,Net-(C3-Pad1)*%
X133190000Y-84060000D02*
X133250000Y-84000000D01*
X152000000Y-98500000D02*
X141104950Y-98500000D01*
X153000000Y-95380000D02*
X153000000Y-97500000D01*
X134291000Y-91686050D02*
X134291000Y-89791000D01*
X130000000Y-84500000D02*
X132750000Y-84500000D01*
X133190000Y-88690000D02*
X133190000Y-84060000D01*
X153000000Y-97500000D02*
X152000000Y-98500000D01*
X134291000Y-89791000D02*
X133190000Y-88690000D01*
X141104950Y-98500000D02*
X134291000Y-91686050D01*
X132750000Y-84500000D02*
X133250000Y-84000000D01*
X151120000Y-93500000D02*
X153000000Y-95380000D01*
%TO.N,Net-(R10-Pad2)*%
X144500000Y-90000000D02*
X142040000Y-90000000D01*
X144500000Y-90000000D02*
X144500000Y-85920000D01*
X144500000Y-85920000D02*
X144920000Y-85500000D01*
X142040000Y-90000000D02*
X140810000Y-91230000D01*
%TO.N,Effect_in*%
X119120000Y-110000000D02*
X119000000Y-110120000D01*
%TO.N,Net-(C5-Pad1)*%
X119000000Y-106560000D02*
X115500000Y-110060000D01*
X119000000Y-102500000D02*
X119000000Y-106560000D01*
%TO.N,Net-(Q2-S)*%
X130000000Y-94500000D02*
X132460000Y-94500000D01*
X133650000Y-93770000D02*
X133190000Y-93770000D01*
X140880000Y-101000000D02*
X133650000Y-93770000D01*
X140880000Y-103380000D02*
X145000000Y-107500000D01*
X140880000Y-101000000D02*
X140880000Y-103380000D01*
X132460000Y-94500000D02*
X133190000Y-93770000D01*
%TO.N,Net-(U2A--)*%
X122380000Y-84500000D02*
X123810000Y-84500000D01*
X132960000Y-91000000D02*
X133190000Y-91230000D01*
X130310000Y-91000000D02*
X132960000Y-91000000D01*
X123810000Y-84500000D02*
X130310000Y-91000000D01*
%TO.N,Net-(U1A--)*%
X143380000Y-118600000D02*
X139980000Y-122000000D01*
X122690000Y-91000000D02*
X122690000Y-86730000D01*
X139980000Y-122000000D02*
X120500000Y-122000000D01*
X110690000Y-74730000D02*
X110690000Y-72190000D01*
X122690000Y-94310000D02*
X122500000Y-94500000D01*
X122690000Y-91000000D02*
X122690000Y-94310000D01*
X120500000Y-96500000D02*
X122500000Y-94500000D01*
X120500000Y-122000000D02*
X120500000Y-96500000D01*
X122690000Y-86730000D02*
X110690000Y-74730000D01*
%TO.N,Net-(C10-Pad1)*%
X125000000Y-67000000D02*
X125000000Y-63920000D01*
X125000000Y-67000000D02*
X122460000Y-67000000D01*
X122500000Y-54500000D02*
X123500000Y-54500000D01*
X124580000Y-63500000D02*
X124580000Y-60500000D01*
X125000000Y-63920000D02*
X124580000Y-63500000D01*
X125000000Y-56000000D02*
X125000000Y-60080000D01*
X125000000Y-60080000D02*
X124580000Y-60500000D01*
X123500000Y-54500000D02*
X125000000Y-56000000D01*
%TO.N,Net-(U1B--)*%
X120230000Y-77270000D02*
X121000000Y-76500000D01*
X114420000Y-73380000D02*
X118310000Y-77270000D01*
X114420000Y-63500000D02*
X114420000Y-73380000D01*
X118310000Y-77270000D02*
X120230000Y-77270000D01*
%TO.N,Net-(Q5-C)*%
X111500000Y-113567100D02*
X111500000Y-110580000D01*
X107830000Y-110580000D02*
X107500000Y-110250000D01*
X120333900Y-122401000D02*
X111500000Y-113567100D01*
X143340000Y-122000000D02*
X142939000Y-122401000D01*
X151960000Y-113380000D02*
X151960000Y-111000000D01*
X111500000Y-110580000D02*
X107830000Y-110580000D01*
X143340000Y-122000000D02*
X151960000Y-113380000D01*
X142939000Y-122401000D02*
X120333900Y-122401000D01*
%TO.N,Net-(Q5-B)*%
X156000000Y-86420000D02*
X156000000Y-113500000D01*
X153230000Y-118290000D02*
X153540000Y-118600000D01*
X153540000Y-118600000D02*
X153540000Y-121960000D01*
X155080000Y-85500000D02*
X156000000Y-86420000D01*
X153230000Y-111000000D02*
X153230000Y-113500000D01*
X153230000Y-113500000D02*
X153230000Y-118290000D01*
X153540000Y-121960000D02*
X153500000Y-122000000D01*
X156000000Y-113500000D02*
X153230000Y-113500000D01*
%TO.N,Net-(U1A-+)*%
X115580000Y-100080000D02*
X117500000Y-100080000D01*
X115500000Y-82080000D02*
X110690000Y-77270000D01*
X115500000Y-100000000D02*
X115580000Y-100080000D01*
X115500000Y-102560000D02*
X115500000Y-100000000D01*
X115500000Y-100000000D02*
X115500000Y-82080000D01*
%TO.N,Net-(U1B-+)*%
X120730000Y-79810000D02*
X120920000Y-80000000D01*
X131500000Y-77080000D02*
X130080000Y-78500000D01*
X130080000Y-78500000D02*
X122420000Y-78500000D01*
X118310000Y-79810000D02*
X120730000Y-79810000D01*
X122420000Y-78500000D02*
X120920000Y-80000000D01*
%TO.N,Net-(C7-Pad2)*%
X128500000Y-76500000D02*
X128500000Y-69920000D01*
X129460000Y-68960000D02*
X131500000Y-66920000D01*
X129460000Y-68920000D02*
X129460000Y-68960000D01*
X128500000Y-69920000D02*
X129460000Y-68960000D01*
X118310000Y-74730000D02*
X123690000Y-74730000D01*
X127540000Y-67000000D02*
X129460000Y-68920000D01*
X123690000Y-74730000D02*
X128500000Y-69920000D01*
%TO.N,Led-*%
X136000000Y-108300000D02*
X134300000Y-110000000D01*
X136000000Y-102787500D02*
X136000000Y-108300000D01*
%TD*%
M02*
