%TF.GenerationSoftware,KiCad,Pcbnew,9.0.5*%
%TF.CreationDate,2026-04-02T00:41:17+03:00*%
%TF.ProjectId,mxr phase 45,6d787220-7068-4617-9365-2034352e6b69,rev?*%
%TF.SameCoordinates,Original*%
%TF.FileFunction,Legend,Top*%
%TF.FilePolarity,Positive*%
%FSLAX46Y46*%
G04 Gerber Fmt 4.6, Leading zero omitted, Abs format (unit mm)*
G04 Created by KiCad (PCBNEW 9.0.5) date 2026-04-02 00:41:17*
%MOMM*%
%LPD*%
G01*
G04 APERTURE LIST*
%ADD10C,0.100000*%
%ADD11C,0.150000*%
%ADD12C,0.120000*%
G04 APERTURE END LIST*
D10*
X151500000Y-59825000D02*
X155000000Y-59825000D01*
X155000000Y-76325000D01*
X151500000Y-76325000D01*
X151500000Y-59825000D01*
D11*
X127954819Y-59642857D02*
X127478628Y-59976190D01*
X127954819Y-60214285D02*
X126954819Y-60214285D01*
X126954819Y-60214285D02*
X126954819Y-59833333D01*
X126954819Y-59833333D02*
X127002438Y-59738095D01*
X127002438Y-59738095D02*
X127050057Y-59690476D01*
X127050057Y-59690476D02*
X127145295Y-59642857D01*
X127145295Y-59642857D02*
X127288152Y-59642857D01*
X127288152Y-59642857D02*
X127383390Y-59690476D01*
X127383390Y-59690476D02*
X127431009Y-59738095D01*
X127431009Y-59738095D02*
X127478628Y-59833333D01*
X127478628Y-59833333D02*
X127478628Y-60214285D01*
X127954819Y-58690476D02*
X127954819Y-59261904D01*
X127954819Y-58976190D02*
X126954819Y-58976190D01*
X126954819Y-58976190D02*
X127097676Y-59071428D01*
X127097676Y-59071428D02*
X127192914Y-59166666D01*
X127192914Y-59166666D02*
X127240533Y-59261904D01*
X126954819Y-57785714D02*
X126954819Y-58261904D01*
X126954819Y-58261904D02*
X127431009Y-58309523D01*
X127431009Y-58309523D02*
X127383390Y-58261904D01*
X127383390Y-58261904D02*
X127335771Y-58166666D01*
X127335771Y-58166666D02*
X127335771Y-57928571D01*
X127335771Y-57928571D02*
X127383390Y-57833333D01*
X127383390Y-57833333D02*
X127431009Y-57785714D01*
X127431009Y-57785714D02*
X127526247Y-57738095D01*
X127526247Y-57738095D02*
X127764342Y-57738095D01*
X127764342Y-57738095D02*
X127859580Y-57785714D01*
X127859580Y-57785714D02*
X127907200Y-57833333D01*
X127907200Y-57833333D02*
X127954819Y-57928571D01*
X127954819Y-57928571D02*
X127954819Y-58166666D01*
X127954819Y-58166666D02*
X127907200Y-58261904D01*
X127907200Y-58261904D02*
X127859580Y-58309523D01*
X154369819Y-75488220D02*
X153369819Y-75488220D01*
X153369819Y-75488220D02*
X153369819Y-75107268D01*
X153369819Y-75107268D02*
X153417438Y-75012030D01*
X153417438Y-75012030D02*
X153465057Y-74964411D01*
X153465057Y-74964411D02*
X153560295Y-74916792D01*
X153560295Y-74916792D02*
X153703152Y-74916792D01*
X153703152Y-74916792D02*
X153798390Y-74964411D01*
X153798390Y-74964411D02*
X153846009Y-75012030D01*
X153846009Y-75012030D02*
X153893628Y-75107268D01*
X153893628Y-75107268D02*
X153893628Y-75488220D01*
X154369819Y-74488220D02*
X153369819Y-74488220D01*
X154369819Y-74059649D02*
X153846009Y-74059649D01*
X153846009Y-74059649D02*
X153750771Y-74107268D01*
X153750771Y-74107268D02*
X153703152Y-74202506D01*
X153703152Y-74202506D02*
X153703152Y-74345363D01*
X153703152Y-74345363D02*
X153750771Y-74440601D01*
X153750771Y-74440601D02*
X153798390Y-74488220D01*
X154369819Y-73154887D02*
X153846009Y-73154887D01*
X153846009Y-73154887D02*
X153750771Y-73202506D01*
X153750771Y-73202506D02*
X153703152Y-73297744D01*
X153703152Y-73297744D02*
X153703152Y-73488220D01*
X153703152Y-73488220D02*
X153750771Y-73583458D01*
X154322200Y-73154887D02*
X154369819Y-73250125D01*
X154369819Y-73250125D02*
X154369819Y-73488220D01*
X154369819Y-73488220D02*
X154322200Y-73583458D01*
X154322200Y-73583458D02*
X154226961Y-73631077D01*
X154226961Y-73631077D02*
X154131723Y-73631077D01*
X154131723Y-73631077D02*
X154036485Y-73583458D01*
X154036485Y-73583458D02*
X153988866Y-73488220D01*
X153988866Y-73488220D02*
X153988866Y-73250125D01*
X153988866Y-73250125D02*
X153941247Y-73154887D01*
X154322200Y-72726315D02*
X154369819Y-72631077D01*
X154369819Y-72631077D02*
X154369819Y-72440601D01*
X154369819Y-72440601D02*
X154322200Y-72345363D01*
X154322200Y-72345363D02*
X154226961Y-72297744D01*
X154226961Y-72297744D02*
X154179342Y-72297744D01*
X154179342Y-72297744D02*
X154084104Y-72345363D01*
X154084104Y-72345363D02*
X154036485Y-72440601D01*
X154036485Y-72440601D02*
X154036485Y-72583458D01*
X154036485Y-72583458D02*
X153988866Y-72678696D01*
X153988866Y-72678696D02*
X153893628Y-72726315D01*
X153893628Y-72726315D02*
X153846009Y-72726315D01*
X153846009Y-72726315D02*
X153750771Y-72678696D01*
X153750771Y-72678696D02*
X153703152Y-72583458D01*
X153703152Y-72583458D02*
X153703152Y-72440601D01*
X153703152Y-72440601D02*
X153750771Y-72345363D01*
X154322200Y-71488220D02*
X154369819Y-71583458D01*
X154369819Y-71583458D02*
X154369819Y-71773934D01*
X154369819Y-71773934D02*
X154322200Y-71869172D01*
X154322200Y-71869172D02*
X154226961Y-71916791D01*
X154226961Y-71916791D02*
X153846009Y-71916791D01*
X153846009Y-71916791D02*
X153750771Y-71869172D01*
X153750771Y-71869172D02*
X153703152Y-71773934D01*
X153703152Y-71773934D02*
X153703152Y-71583458D01*
X153703152Y-71583458D02*
X153750771Y-71488220D01*
X153750771Y-71488220D02*
X153846009Y-71440601D01*
X153846009Y-71440601D02*
X153941247Y-71440601D01*
X153941247Y-71440601D02*
X154036485Y-71916791D01*
X154369819Y-71012029D02*
X153703152Y-71012029D01*
X153893628Y-71012029D02*
X153798390Y-70964410D01*
X153798390Y-70964410D02*
X153750771Y-70916791D01*
X153750771Y-70916791D02*
X153703152Y-70821553D01*
X153703152Y-70821553D02*
X153703152Y-70726315D01*
X153703152Y-69202505D02*
X154369819Y-69202505D01*
X153322200Y-69440600D02*
X154036485Y-69678695D01*
X154036485Y-69678695D02*
X154036485Y-69059648D01*
X153369819Y-68202505D02*
X153369819Y-68678695D01*
X153369819Y-68678695D02*
X153846009Y-68726314D01*
X153846009Y-68726314D02*
X153798390Y-68678695D01*
X153798390Y-68678695D02*
X153750771Y-68583457D01*
X153750771Y-68583457D02*
X153750771Y-68345362D01*
X153750771Y-68345362D02*
X153798390Y-68250124D01*
X153798390Y-68250124D02*
X153846009Y-68202505D01*
X153846009Y-68202505D02*
X153941247Y-68154886D01*
X153941247Y-68154886D02*
X154179342Y-68154886D01*
X154179342Y-68154886D02*
X154274580Y-68202505D01*
X154274580Y-68202505D02*
X154322200Y-68250124D01*
X154322200Y-68250124D02*
X154369819Y-68345362D01*
X154369819Y-68345362D02*
X154369819Y-68583457D01*
X154369819Y-68583457D02*
X154322200Y-68678695D01*
X154322200Y-68678695D02*
X154274580Y-68726314D01*
X153417438Y-67154885D02*
X153417438Y-66678695D01*
X153274580Y-66726314D02*
X154560295Y-65869171D01*
X154465057Y-65964409D02*
X154465057Y-65202504D01*
X154750771Y-64678694D02*
X154703152Y-64726313D01*
X154703152Y-64726313D02*
X154560295Y-64821551D01*
X154560295Y-64821551D02*
X154465057Y-64869170D01*
X154465057Y-64869170D02*
X154322200Y-64916789D01*
X154322200Y-64916789D02*
X154084104Y-64964408D01*
X154084104Y-64964408D02*
X153893628Y-64964408D01*
X153893628Y-64964408D02*
X153655533Y-64916789D01*
X153655533Y-64916789D02*
X153512676Y-64869170D01*
X153512676Y-64869170D02*
X153417438Y-64821551D01*
X153417438Y-64821551D02*
X153274580Y-64726313D01*
X153274580Y-64726313D02*
X153226961Y-64678694D01*
X153417438Y-64297741D02*
X153750771Y-64202503D01*
X153369819Y-64107265D02*
X153655533Y-64012027D01*
X153417438Y-63773932D02*
X153703152Y-63773932D01*
X153703152Y-63773932D02*
X153893628Y-63821551D01*
X153893628Y-63821551D02*
X154084104Y-63916789D01*
X154084104Y-63916789D02*
X154179342Y-64012027D01*
X154179342Y-64012027D02*
X154274580Y-64154884D01*
X154750771Y-63345360D02*
X154703152Y-63297741D01*
X154703152Y-63297741D02*
X154560295Y-63202503D01*
X154560295Y-63202503D02*
X154465057Y-63154884D01*
X154465057Y-63154884D02*
X154322200Y-63107265D01*
X154322200Y-63107265D02*
X154084104Y-63059646D01*
X154084104Y-63059646D02*
X153893628Y-63059646D01*
X153893628Y-63059646D02*
X153655533Y-63107265D01*
X153655533Y-63107265D02*
X153512676Y-63154884D01*
X153512676Y-63154884D02*
X153417438Y-63202503D01*
X153417438Y-63202503D02*
X153274580Y-63297741D01*
X153274580Y-63297741D02*
X153226961Y-63345360D01*
X154465057Y-62821551D02*
X154465057Y-62059646D01*
X153322200Y-61107265D02*
X154607914Y-61964407D01*
X153417438Y-60964407D02*
X153417438Y-60488217D01*
X147667142Y-90454819D02*
X147333809Y-89978628D01*
X147095714Y-90454819D02*
X147095714Y-89454819D01*
X147095714Y-89454819D02*
X147476666Y-89454819D01*
X147476666Y-89454819D02*
X147571904Y-89502438D01*
X147571904Y-89502438D02*
X147619523Y-89550057D01*
X147619523Y-89550057D02*
X147667142Y-89645295D01*
X147667142Y-89645295D02*
X147667142Y-89788152D01*
X147667142Y-89788152D02*
X147619523Y-89883390D01*
X147619523Y-89883390D02*
X147571904Y-89931009D01*
X147571904Y-89931009D02*
X147476666Y-89978628D01*
X147476666Y-89978628D02*
X147095714Y-89978628D01*
X148619523Y-90454819D02*
X148048095Y-90454819D01*
X148333809Y-90454819D02*
X148333809Y-89454819D01*
X148333809Y-89454819D02*
X148238571Y-89597676D01*
X148238571Y-89597676D02*
X148143333Y-89692914D01*
X148143333Y-89692914D02*
X148048095Y-89740533D01*
X149238571Y-89454819D02*
X149333809Y-89454819D01*
X149333809Y-89454819D02*
X149429047Y-89502438D01*
X149429047Y-89502438D02*
X149476666Y-89550057D01*
X149476666Y-89550057D02*
X149524285Y-89645295D01*
X149524285Y-89645295D02*
X149571904Y-89835771D01*
X149571904Y-89835771D02*
X149571904Y-90073866D01*
X149571904Y-90073866D02*
X149524285Y-90264342D01*
X149524285Y-90264342D02*
X149476666Y-90359580D01*
X149476666Y-90359580D02*
X149429047Y-90407200D01*
X149429047Y-90407200D02*
X149333809Y-90454819D01*
X149333809Y-90454819D02*
X149238571Y-90454819D01*
X149238571Y-90454819D02*
X149143333Y-90407200D01*
X149143333Y-90407200D02*
X149095714Y-90359580D01*
X149095714Y-90359580D02*
X149048095Y-90264342D01*
X149048095Y-90264342D02*
X149000476Y-90073866D01*
X149000476Y-90073866D02*
X149000476Y-89835771D01*
X149000476Y-89835771D02*
X149048095Y-89645295D01*
X149048095Y-89645295D02*
X149095714Y-89550057D01*
X149095714Y-89550057D02*
X149143333Y-89502438D01*
X149143333Y-89502438D02*
X149238571Y-89454819D01*
X118857142Y-63954819D02*
X118523809Y-63478628D01*
X118285714Y-63954819D02*
X118285714Y-62954819D01*
X118285714Y-62954819D02*
X118666666Y-62954819D01*
X118666666Y-62954819D02*
X118761904Y-63002438D01*
X118761904Y-63002438D02*
X118809523Y-63050057D01*
X118809523Y-63050057D02*
X118857142Y-63145295D01*
X118857142Y-63145295D02*
X118857142Y-63288152D01*
X118857142Y-63288152D02*
X118809523Y-63383390D01*
X118809523Y-63383390D02*
X118761904Y-63431009D01*
X118761904Y-63431009D02*
X118666666Y-63478628D01*
X118666666Y-63478628D02*
X118285714Y-63478628D01*
X119238095Y-63050057D02*
X119285714Y-63002438D01*
X119285714Y-63002438D02*
X119380952Y-62954819D01*
X119380952Y-62954819D02*
X119619047Y-62954819D01*
X119619047Y-62954819D02*
X119714285Y-63002438D01*
X119714285Y-63002438D02*
X119761904Y-63050057D01*
X119761904Y-63050057D02*
X119809523Y-63145295D01*
X119809523Y-63145295D02*
X119809523Y-63240533D01*
X119809523Y-63240533D02*
X119761904Y-63383390D01*
X119761904Y-63383390D02*
X119190476Y-63954819D01*
X119190476Y-63954819D02*
X119809523Y-63954819D01*
X120666666Y-63288152D02*
X120666666Y-63954819D01*
X120428571Y-62907200D02*
X120190476Y-63621485D01*
X120190476Y-63621485D02*
X120809523Y-63621485D01*
X107859580Y-106666666D02*
X107907200Y-106714285D01*
X107907200Y-106714285D02*
X107954819Y-106857142D01*
X107954819Y-106857142D02*
X107954819Y-106952380D01*
X107954819Y-106952380D02*
X107907200Y-107095237D01*
X107907200Y-107095237D02*
X107811961Y-107190475D01*
X107811961Y-107190475D02*
X107716723Y-107238094D01*
X107716723Y-107238094D02*
X107526247Y-107285713D01*
X107526247Y-107285713D02*
X107383390Y-107285713D01*
X107383390Y-107285713D02*
X107192914Y-107238094D01*
X107192914Y-107238094D02*
X107097676Y-107190475D01*
X107097676Y-107190475D02*
X107002438Y-107095237D01*
X107002438Y-107095237D02*
X106954819Y-106952380D01*
X106954819Y-106952380D02*
X106954819Y-106857142D01*
X106954819Y-106857142D02*
X107002438Y-106714285D01*
X107002438Y-106714285D02*
X107050057Y-106666666D01*
X107050057Y-106285713D02*
X107002438Y-106238094D01*
X107002438Y-106238094D02*
X106954819Y-106142856D01*
X106954819Y-106142856D02*
X106954819Y-105904761D01*
X106954819Y-105904761D02*
X107002438Y-105809523D01*
X107002438Y-105809523D02*
X107050057Y-105761904D01*
X107050057Y-105761904D02*
X107145295Y-105714285D01*
X107145295Y-105714285D02*
X107240533Y-105714285D01*
X107240533Y-105714285D02*
X107383390Y-105761904D01*
X107383390Y-105761904D02*
X107954819Y-106333332D01*
X107954819Y-106333332D02*
X107954819Y-105714285D01*
X118857142Y-60954819D02*
X118523809Y-60478628D01*
X118285714Y-60954819D02*
X118285714Y-59954819D01*
X118285714Y-59954819D02*
X118666666Y-59954819D01*
X118666666Y-59954819D02*
X118761904Y-60002438D01*
X118761904Y-60002438D02*
X118809523Y-60050057D01*
X118809523Y-60050057D02*
X118857142Y-60145295D01*
X118857142Y-60145295D02*
X118857142Y-60288152D01*
X118857142Y-60288152D02*
X118809523Y-60383390D01*
X118809523Y-60383390D02*
X118761904Y-60431009D01*
X118761904Y-60431009D02*
X118666666Y-60478628D01*
X118666666Y-60478628D02*
X118285714Y-60478628D01*
X119238095Y-60050057D02*
X119285714Y-60002438D01*
X119285714Y-60002438D02*
X119380952Y-59954819D01*
X119380952Y-59954819D02*
X119619047Y-59954819D01*
X119619047Y-59954819D02*
X119714285Y-60002438D01*
X119714285Y-60002438D02*
X119761904Y-60050057D01*
X119761904Y-60050057D02*
X119809523Y-60145295D01*
X119809523Y-60145295D02*
X119809523Y-60240533D01*
X119809523Y-60240533D02*
X119761904Y-60383390D01*
X119761904Y-60383390D02*
X119190476Y-60954819D01*
X119190476Y-60954819D02*
X119809523Y-60954819D01*
X120190476Y-60050057D02*
X120238095Y-60002438D01*
X120238095Y-60002438D02*
X120333333Y-59954819D01*
X120333333Y-59954819D02*
X120571428Y-59954819D01*
X120571428Y-59954819D02*
X120666666Y-60002438D01*
X120666666Y-60002438D02*
X120714285Y-60050057D01*
X120714285Y-60050057D02*
X120761904Y-60145295D01*
X120761904Y-60145295D02*
X120761904Y-60240533D01*
X120761904Y-60240533D02*
X120714285Y-60383390D01*
X120714285Y-60383390D02*
X120142857Y-60954819D01*
X120142857Y-60954819D02*
X120761904Y-60954819D01*
X146667142Y-93954819D02*
X146333809Y-93478628D01*
X146095714Y-93954819D02*
X146095714Y-92954819D01*
X146095714Y-92954819D02*
X146476666Y-92954819D01*
X146476666Y-92954819D02*
X146571904Y-93002438D01*
X146571904Y-93002438D02*
X146619523Y-93050057D01*
X146619523Y-93050057D02*
X146667142Y-93145295D01*
X146667142Y-93145295D02*
X146667142Y-93288152D01*
X146667142Y-93288152D02*
X146619523Y-93383390D01*
X146619523Y-93383390D02*
X146571904Y-93431009D01*
X146571904Y-93431009D02*
X146476666Y-93478628D01*
X146476666Y-93478628D02*
X146095714Y-93478628D01*
X147619523Y-93954819D02*
X147048095Y-93954819D01*
X147333809Y-93954819D02*
X147333809Y-92954819D01*
X147333809Y-92954819D02*
X147238571Y-93097676D01*
X147238571Y-93097676D02*
X147143333Y-93192914D01*
X147143333Y-93192914D02*
X147048095Y-93240533D01*
X148571904Y-93954819D02*
X148000476Y-93954819D01*
X148286190Y-93954819D02*
X148286190Y-92954819D01*
X148286190Y-92954819D02*
X148190952Y-93097676D01*
X148190952Y-93097676D02*
X148095714Y-93192914D01*
X148095714Y-93192914D02*
X148000476Y-93240533D01*
X132047619Y-51954819D02*
X132047619Y-50954819D01*
X132047619Y-50954819D02*
X132428571Y-50954819D01*
X132428571Y-50954819D02*
X132523809Y-51002438D01*
X132523809Y-51002438D02*
X132571428Y-51050057D01*
X132571428Y-51050057D02*
X132619047Y-51145295D01*
X132619047Y-51145295D02*
X132619047Y-51288152D01*
X132619047Y-51288152D02*
X132571428Y-51383390D01*
X132571428Y-51383390D02*
X132523809Y-51431009D01*
X132523809Y-51431009D02*
X132428571Y-51478628D01*
X132428571Y-51478628D02*
X132047619Y-51478628D01*
X133190476Y-51954819D02*
X133095238Y-51907200D01*
X133095238Y-51907200D02*
X133047619Y-51859580D01*
X133047619Y-51859580D02*
X133000000Y-51764342D01*
X133000000Y-51764342D02*
X133000000Y-51478628D01*
X133000000Y-51478628D02*
X133047619Y-51383390D01*
X133047619Y-51383390D02*
X133095238Y-51335771D01*
X133095238Y-51335771D02*
X133190476Y-51288152D01*
X133190476Y-51288152D02*
X133333333Y-51288152D01*
X133333333Y-51288152D02*
X133428571Y-51335771D01*
X133428571Y-51335771D02*
X133476190Y-51383390D01*
X133476190Y-51383390D02*
X133523809Y-51478628D01*
X133523809Y-51478628D02*
X133523809Y-51764342D01*
X133523809Y-51764342D02*
X133476190Y-51859580D01*
X133476190Y-51859580D02*
X133428571Y-51907200D01*
X133428571Y-51907200D02*
X133333333Y-51954819D01*
X133333333Y-51954819D02*
X133190476Y-51954819D01*
X133857143Y-51288152D02*
X134047619Y-51954819D01*
X134047619Y-51954819D02*
X134238095Y-51478628D01*
X134238095Y-51478628D02*
X134428571Y-51954819D01*
X134428571Y-51954819D02*
X134619047Y-51288152D01*
X135380952Y-51907200D02*
X135285714Y-51954819D01*
X135285714Y-51954819D02*
X135095238Y-51954819D01*
X135095238Y-51954819D02*
X135000000Y-51907200D01*
X135000000Y-51907200D02*
X134952381Y-51811961D01*
X134952381Y-51811961D02*
X134952381Y-51431009D01*
X134952381Y-51431009D02*
X135000000Y-51335771D01*
X135000000Y-51335771D02*
X135095238Y-51288152D01*
X135095238Y-51288152D02*
X135285714Y-51288152D01*
X135285714Y-51288152D02*
X135380952Y-51335771D01*
X135380952Y-51335771D02*
X135428571Y-51431009D01*
X135428571Y-51431009D02*
X135428571Y-51526247D01*
X135428571Y-51526247D02*
X134952381Y-51621485D01*
X135857143Y-51954819D02*
X135857143Y-51288152D01*
X135857143Y-51478628D02*
X135904762Y-51383390D01*
X135904762Y-51383390D02*
X135952381Y-51335771D01*
X135952381Y-51335771D02*
X136047619Y-51288152D01*
X136047619Y-51288152D02*
X136142857Y-51288152D01*
X137000000Y-51954819D02*
X136428572Y-51954819D01*
X136714286Y-51954819D02*
X136714286Y-50954819D01*
X136714286Y-50954819D02*
X136619048Y-51097676D01*
X136619048Y-51097676D02*
X136523810Y-51192914D01*
X136523810Y-51192914D02*
X136428572Y-51240533D01*
X142859580Y-63166666D02*
X142907200Y-63214285D01*
X142907200Y-63214285D02*
X142954819Y-63357142D01*
X142954819Y-63357142D02*
X142954819Y-63452380D01*
X142954819Y-63452380D02*
X142907200Y-63595237D01*
X142907200Y-63595237D02*
X142811961Y-63690475D01*
X142811961Y-63690475D02*
X142716723Y-63738094D01*
X142716723Y-63738094D02*
X142526247Y-63785713D01*
X142526247Y-63785713D02*
X142383390Y-63785713D01*
X142383390Y-63785713D02*
X142192914Y-63738094D01*
X142192914Y-63738094D02*
X142097676Y-63690475D01*
X142097676Y-63690475D02*
X142002438Y-63595237D01*
X142002438Y-63595237D02*
X141954819Y-63452380D01*
X141954819Y-63452380D02*
X141954819Y-63357142D01*
X141954819Y-63357142D02*
X142002438Y-63214285D01*
X142002438Y-63214285D02*
X142050057Y-63166666D01*
X142383390Y-62595237D02*
X142335771Y-62690475D01*
X142335771Y-62690475D02*
X142288152Y-62738094D01*
X142288152Y-62738094D02*
X142192914Y-62785713D01*
X142192914Y-62785713D02*
X142145295Y-62785713D01*
X142145295Y-62785713D02*
X142050057Y-62738094D01*
X142050057Y-62738094D02*
X142002438Y-62690475D01*
X142002438Y-62690475D02*
X141954819Y-62595237D01*
X141954819Y-62595237D02*
X141954819Y-62404761D01*
X141954819Y-62404761D02*
X142002438Y-62309523D01*
X142002438Y-62309523D02*
X142050057Y-62261904D01*
X142050057Y-62261904D02*
X142145295Y-62214285D01*
X142145295Y-62214285D02*
X142192914Y-62214285D01*
X142192914Y-62214285D02*
X142288152Y-62261904D01*
X142288152Y-62261904D02*
X142335771Y-62309523D01*
X142335771Y-62309523D02*
X142383390Y-62404761D01*
X142383390Y-62404761D02*
X142383390Y-62595237D01*
X142383390Y-62595237D02*
X142431009Y-62690475D01*
X142431009Y-62690475D02*
X142478628Y-62738094D01*
X142478628Y-62738094D02*
X142573866Y-62785713D01*
X142573866Y-62785713D02*
X142764342Y-62785713D01*
X142764342Y-62785713D02*
X142859580Y-62738094D01*
X142859580Y-62738094D02*
X142907200Y-62690475D01*
X142907200Y-62690475D02*
X142954819Y-62595237D01*
X142954819Y-62595237D02*
X142954819Y-62404761D01*
X142954819Y-62404761D02*
X142907200Y-62309523D01*
X142907200Y-62309523D02*
X142859580Y-62261904D01*
X142859580Y-62261904D02*
X142764342Y-62214285D01*
X142764342Y-62214285D02*
X142573866Y-62214285D01*
X142573866Y-62214285D02*
X142478628Y-62261904D01*
X142478628Y-62261904D02*
X142431009Y-62309523D01*
X142431009Y-62309523D02*
X142383390Y-62404761D01*
X126023333Y-84954819D02*
X125690000Y-84478628D01*
X125451905Y-84954819D02*
X125451905Y-83954819D01*
X125451905Y-83954819D02*
X125832857Y-83954819D01*
X125832857Y-83954819D02*
X125928095Y-84002438D01*
X125928095Y-84002438D02*
X125975714Y-84050057D01*
X125975714Y-84050057D02*
X126023333Y-84145295D01*
X126023333Y-84145295D02*
X126023333Y-84288152D01*
X126023333Y-84288152D02*
X125975714Y-84383390D01*
X125975714Y-84383390D02*
X125928095Y-84431009D01*
X125928095Y-84431009D02*
X125832857Y-84478628D01*
X125832857Y-84478628D02*
X125451905Y-84478628D01*
X126928095Y-83954819D02*
X126451905Y-83954819D01*
X126451905Y-83954819D02*
X126404286Y-84431009D01*
X126404286Y-84431009D02*
X126451905Y-84383390D01*
X126451905Y-84383390D02*
X126547143Y-84335771D01*
X126547143Y-84335771D02*
X126785238Y-84335771D01*
X126785238Y-84335771D02*
X126880476Y-84383390D01*
X126880476Y-84383390D02*
X126928095Y-84431009D01*
X126928095Y-84431009D02*
X126975714Y-84526247D01*
X126975714Y-84526247D02*
X126975714Y-84764342D01*
X126975714Y-84764342D02*
X126928095Y-84859580D01*
X126928095Y-84859580D02*
X126880476Y-84907200D01*
X126880476Y-84907200D02*
X126785238Y-84954819D01*
X126785238Y-84954819D02*
X126547143Y-84954819D01*
X126547143Y-84954819D02*
X126451905Y-84907200D01*
X126451905Y-84907200D02*
X126404286Y-84859580D01*
X150229819Y-52928570D02*
X149229819Y-52928570D01*
X149563152Y-52452380D02*
X150229819Y-52452380D01*
X149658390Y-52452380D02*
X149610771Y-52404761D01*
X149610771Y-52404761D02*
X149563152Y-52309523D01*
X149563152Y-52309523D02*
X149563152Y-52166666D01*
X149563152Y-52166666D02*
X149610771Y-52071428D01*
X149610771Y-52071428D02*
X149706009Y-52023809D01*
X149706009Y-52023809D02*
X150229819Y-52023809D01*
X150229819Y-51023809D02*
X150229819Y-51595237D01*
X150229819Y-51309523D02*
X149229819Y-51309523D01*
X149229819Y-51309523D02*
X149372676Y-51404761D01*
X149372676Y-51404761D02*
X149467914Y-51499999D01*
X149467914Y-51499999D02*
X149515533Y-51595237D01*
D10*
X128238095Y-122957419D02*
X128238095Y-123766942D01*
X128238095Y-123766942D02*
X128285714Y-123862180D01*
X128285714Y-123862180D02*
X128333333Y-123909800D01*
X128333333Y-123909800D02*
X128428571Y-123957419D01*
X128428571Y-123957419D02*
X128619047Y-123957419D01*
X128619047Y-123957419D02*
X128714285Y-123909800D01*
X128714285Y-123909800D02*
X128761904Y-123862180D01*
X128761904Y-123862180D02*
X128809523Y-123766942D01*
X128809523Y-123766942D02*
X128809523Y-122957419D01*
X129190476Y-122957419D02*
X129809523Y-122957419D01*
X129809523Y-122957419D02*
X129476190Y-123338371D01*
X129476190Y-123338371D02*
X129619047Y-123338371D01*
X129619047Y-123338371D02*
X129714285Y-123385990D01*
X129714285Y-123385990D02*
X129761904Y-123433609D01*
X129761904Y-123433609D02*
X129809523Y-123528847D01*
X129809523Y-123528847D02*
X129809523Y-123766942D01*
X129809523Y-123766942D02*
X129761904Y-123862180D01*
X129761904Y-123862180D02*
X129714285Y-123909800D01*
X129714285Y-123909800D02*
X129619047Y-123957419D01*
X129619047Y-123957419D02*
X129333333Y-123957419D01*
X129333333Y-123957419D02*
X129238095Y-123909800D01*
X129238095Y-123909800D02*
X129190476Y-123862180D01*
D11*
X106954819Y-52809523D02*
X106954819Y-52619047D01*
X106954819Y-52619047D02*
X107002438Y-52523809D01*
X107002438Y-52523809D02*
X107097676Y-52428571D01*
X107097676Y-52428571D02*
X107288152Y-52380952D01*
X107288152Y-52380952D02*
X107621485Y-52380952D01*
X107621485Y-52380952D02*
X107811961Y-52428571D01*
X107811961Y-52428571D02*
X107907200Y-52523809D01*
X107907200Y-52523809D02*
X107954819Y-52619047D01*
X107954819Y-52619047D02*
X107954819Y-52809523D01*
X107954819Y-52809523D02*
X107907200Y-52904761D01*
X107907200Y-52904761D02*
X107811961Y-52999999D01*
X107811961Y-52999999D02*
X107621485Y-53047618D01*
X107621485Y-53047618D02*
X107288152Y-53047618D01*
X107288152Y-53047618D02*
X107097676Y-52999999D01*
X107097676Y-52999999D02*
X107002438Y-52904761D01*
X107002438Y-52904761D02*
X106954819Y-52809523D01*
X107288152Y-51523809D02*
X107954819Y-51523809D01*
X107288152Y-51952380D02*
X107811961Y-51952380D01*
X107811961Y-51952380D02*
X107907200Y-51904761D01*
X107907200Y-51904761D02*
X107954819Y-51809523D01*
X107954819Y-51809523D02*
X107954819Y-51666666D01*
X107954819Y-51666666D02*
X107907200Y-51571428D01*
X107907200Y-51571428D02*
X107859580Y-51523809D01*
X107288152Y-51190475D02*
X107288152Y-50809523D01*
X106954819Y-51047618D02*
X107811961Y-51047618D01*
X107811961Y-51047618D02*
X107907200Y-50999999D01*
X107907200Y-50999999D02*
X107954819Y-50904761D01*
X107954819Y-50904761D02*
X107954819Y-50809523D01*
X107954819Y-49952380D02*
X107954819Y-50523808D01*
X107954819Y-50238094D02*
X106954819Y-50238094D01*
X106954819Y-50238094D02*
X107097676Y-50333332D01*
X107097676Y-50333332D02*
X107192914Y-50428570D01*
X107192914Y-50428570D02*
X107240533Y-50523808D01*
X148857142Y-118954819D02*
X148523809Y-118478628D01*
X148285714Y-118954819D02*
X148285714Y-117954819D01*
X148285714Y-117954819D02*
X148666666Y-117954819D01*
X148666666Y-117954819D02*
X148761904Y-118002438D01*
X148761904Y-118002438D02*
X148809523Y-118050057D01*
X148809523Y-118050057D02*
X148857142Y-118145295D01*
X148857142Y-118145295D02*
X148857142Y-118288152D01*
X148857142Y-118288152D02*
X148809523Y-118383390D01*
X148809523Y-118383390D02*
X148761904Y-118431009D01*
X148761904Y-118431009D02*
X148666666Y-118478628D01*
X148666666Y-118478628D02*
X148285714Y-118478628D01*
X149809523Y-118954819D02*
X149238095Y-118954819D01*
X149523809Y-118954819D02*
X149523809Y-117954819D01*
X149523809Y-117954819D02*
X149428571Y-118097676D01*
X149428571Y-118097676D02*
X149333333Y-118192914D01*
X149333333Y-118192914D02*
X149238095Y-118240533D01*
X150666666Y-117954819D02*
X150476190Y-117954819D01*
X150476190Y-117954819D02*
X150380952Y-118002438D01*
X150380952Y-118002438D02*
X150333333Y-118050057D01*
X150333333Y-118050057D02*
X150238095Y-118192914D01*
X150238095Y-118192914D02*
X150190476Y-118383390D01*
X150190476Y-118383390D02*
X150190476Y-118764342D01*
X150190476Y-118764342D02*
X150238095Y-118859580D01*
X150238095Y-118859580D02*
X150285714Y-118907200D01*
X150285714Y-118907200D02*
X150380952Y-118954819D01*
X150380952Y-118954819D02*
X150571428Y-118954819D01*
X150571428Y-118954819D02*
X150666666Y-118907200D01*
X150666666Y-118907200D02*
X150714285Y-118859580D01*
X150714285Y-118859580D02*
X150761904Y-118764342D01*
X150761904Y-118764342D02*
X150761904Y-118526247D01*
X150761904Y-118526247D02*
X150714285Y-118431009D01*
X150714285Y-118431009D02*
X150666666Y-118383390D01*
X150666666Y-118383390D02*
X150571428Y-118335771D01*
X150571428Y-118335771D02*
X150380952Y-118335771D01*
X150380952Y-118335771D02*
X150285714Y-118383390D01*
X150285714Y-118383390D02*
X150238095Y-118431009D01*
X150238095Y-118431009D02*
X150190476Y-118526247D01*
X148253333Y-122454819D02*
X147920000Y-121978628D01*
X147681905Y-122454819D02*
X147681905Y-121454819D01*
X147681905Y-121454819D02*
X148062857Y-121454819D01*
X148062857Y-121454819D02*
X148158095Y-121502438D01*
X148158095Y-121502438D02*
X148205714Y-121550057D01*
X148205714Y-121550057D02*
X148253333Y-121645295D01*
X148253333Y-121645295D02*
X148253333Y-121788152D01*
X148253333Y-121788152D02*
X148205714Y-121883390D01*
X148205714Y-121883390D02*
X148158095Y-121931009D01*
X148158095Y-121931009D02*
X148062857Y-121978628D01*
X148062857Y-121978628D02*
X147681905Y-121978628D01*
X148586667Y-121454819D02*
X149253333Y-121454819D01*
X149253333Y-121454819D02*
X148824762Y-122454819D01*
X119954819Y-108166666D02*
X119478628Y-108499999D01*
X119954819Y-108738094D02*
X118954819Y-108738094D01*
X118954819Y-108738094D02*
X118954819Y-108357142D01*
X118954819Y-108357142D02*
X119002438Y-108261904D01*
X119002438Y-108261904D02*
X119050057Y-108214285D01*
X119050057Y-108214285D02*
X119145295Y-108166666D01*
X119145295Y-108166666D02*
X119288152Y-108166666D01*
X119288152Y-108166666D02*
X119383390Y-108214285D01*
X119383390Y-108214285D02*
X119431009Y-108261904D01*
X119431009Y-108261904D02*
X119478628Y-108357142D01*
X119478628Y-108357142D02*
X119478628Y-108738094D01*
X118954819Y-107833332D02*
X118954819Y-107214285D01*
X118954819Y-107214285D02*
X119335771Y-107547618D01*
X119335771Y-107547618D02*
X119335771Y-107404761D01*
X119335771Y-107404761D02*
X119383390Y-107309523D01*
X119383390Y-107309523D02*
X119431009Y-107261904D01*
X119431009Y-107261904D02*
X119526247Y-107214285D01*
X119526247Y-107214285D02*
X119764342Y-107214285D01*
X119764342Y-107214285D02*
X119859580Y-107261904D01*
X119859580Y-107261904D02*
X119907200Y-107309523D01*
X119907200Y-107309523D02*
X119954819Y-107404761D01*
X119954819Y-107404761D02*
X119954819Y-107690475D01*
X119954819Y-107690475D02*
X119907200Y-107785713D01*
X119907200Y-107785713D02*
X119859580Y-107833332D01*
X113954819Y-76761904D02*
X114764342Y-76761904D01*
X114764342Y-76761904D02*
X114859580Y-76714285D01*
X114859580Y-76714285D02*
X114907200Y-76666666D01*
X114907200Y-76666666D02*
X114954819Y-76571428D01*
X114954819Y-76571428D02*
X114954819Y-76380952D01*
X114954819Y-76380952D02*
X114907200Y-76285714D01*
X114907200Y-76285714D02*
X114859580Y-76238095D01*
X114859580Y-76238095D02*
X114764342Y-76190476D01*
X114764342Y-76190476D02*
X113954819Y-76190476D01*
X114954819Y-75190476D02*
X114954819Y-75761904D01*
X114954819Y-75476190D02*
X113954819Y-75476190D01*
X113954819Y-75476190D02*
X114097676Y-75571428D01*
X114097676Y-75571428D02*
X114192914Y-75666666D01*
X114192914Y-75666666D02*
X114240533Y-75761904D01*
X138052380Y-54449819D02*
X137719047Y-53973628D01*
X137480952Y-54449819D02*
X137480952Y-53449819D01*
X137480952Y-53449819D02*
X137861904Y-53449819D01*
X137861904Y-53449819D02*
X137957142Y-53497438D01*
X137957142Y-53497438D02*
X138004761Y-53545057D01*
X138004761Y-53545057D02*
X138052380Y-53640295D01*
X138052380Y-53640295D02*
X138052380Y-53783152D01*
X138052380Y-53783152D02*
X138004761Y-53878390D01*
X138004761Y-53878390D02*
X137957142Y-53926009D01*
X137957142Y-53926009D02*
X137861904Y-53973628D01*
X137861904Y-53973628D02*
X137480952Y-53973628D01*
X138242857Y-54545057D02*
X139004761Y-54545057D01*
X139100000Y-53783152D02*
X139480952Y-53783152D01*
X139242857Y-53449819D02*
X139242857Y-54306961D01*
X139242857Y-54306961D02*
X139290476Y-54402200D01*
X139290476Y-54402200D02*
X139385714Y-54449819D01*
X139385714Y-54449819D02*
X139480952Y-54449819D01*
X139814286Y-54449819D02*
X139814286Y-53783152D01*
X139814286Y-53973628D02*
X139861905Y-53878390D01*
X139861905Y-53878390D02*
X139909524Y-53830771D01*
X139909524Y-53830771D02*
X140004762Y-53783152D01*
X140004762Y-53783152D02*
X140100000Y-53783152D01*
X140433334Y-54449819D02*
X140433334Y-53783152D01*
X140433334Y-53449819D02*
X140385715Y-53497438D01*
X140385715Y-53497438D02*
X140433334Y-53545057D01*
X140433334Y-53545057D02*
X140480953Y-53497438D01*
X140480953Y-53497438D02*
X140433334Y-53449819D01*
X140433334Y-53449819D02*
X140433334Y-53545057D01*
X140909524Y-54449819D02*
X140909524Y-53783152D01*
X140909524Y-53878390D02*
X140957143Y-53830771D01*
X140957143Y-53830771D02*
X141052381Y-53783152D01*
X141052381Y-53783152D02*
X141195238Y-53783152D01*
X141195238Y-53783152D02*
X141290476Y-53830771D01*
X141290476Y-53830771D02*
X141338095Y-53926009D01*
X141338095Y-53926009D02*
X141338095Y-54449819D01*
X141338095Y-53926009D02*
X141385714Y-53830771D01*
X141385714Y-53830771D02*
X141480952Y-53783152D01*
X141480952Y-53783152D02*
X141623809Y-53783152D01*
X141623809Y-53783152D02*
X141719048Y-53830771D01*
X141719048Y-53830771D02*
X141766667Y-53926009D01*
X141766667Y-53926009D02*
X141766667Y-54449819D01*
X142766666Y-54449819D02*
X142195238Y-54449819D01*
X142480952Y-54449819D02*
X142480952Y-53449819D01*
X142480952Y-53449819D02*
X142385714Y-53592676D01*
X142385714Y-53592676D02*
X142290476Y-53687914D01*
X142290476Y-53687914D02*
X142195238Y-53735533D01*
X117954819Y-95642857D02*
X117478628Y-95976190D01*
X117954819Y-96214285D02*
X116954819Y-96214285D01*
X116954819Y-96214285D02*
X116954819Y-95833333D01*
X116954819Y-95833333D02*
X117002438Y-95738095D01*
X117002438Y-95738095D02*
X117050057Y-95690476D01*
X117050057Y-95690476D02*
X117145295Y-95642857D01*
X117145295Y-95642857D02*
X117288152Y-95642857D01*
X117288152Y-95642857D02*
X117383390Y-95690476D01*
X117383390Y-95690476D02*
X117431009Y-95738095D01*
X117431009Y-95738095D02*
X117478628Y-95833333D01*
X117478628Y-95833333D02*
X117478628Y-96214285D01*
X117954819Y-94690476D02*
X117954819Y-95261904D01*
X117954819Y-94976190D02*
X116954819Y-94976190D01*
X116954819Y-94976190D02*
X117097676Y-95071428D01*
X117097676Y-95071428D02*
X117192914Y-95166666D01*
X117192914Y-95166666D02*
X117240533Y-95261904D01*
X117288152Y-93833333D02*
X117954819Y-93833333D01*
X116907200Y-94071428D02*
X117621485Y-94309523D01*
X117621485Y-94309523D02*
X117621485Y-93690476D01*
X126083333Y-94859580D02*
X126035714Y-94907200D01*
X126035714Y-94907200D02*
X125892857Y-94954819D01*
X125892857Y-94954819D02*
X125797619Y-94954819D01*
X125797619Y-94954819D02*
X125654762Y-94907200D01*
X125654762Y-94907200D02*
X125559524Y-94811961D01*
X125559524Y-94811961D02*
X125511905Y-94716723D01*
X125511905Y-94716723D02*
X125464286Y-94526247D01*
X125464286Y-94526247D02*
X125464286Y-94383390D01*
X125464286Y-94383390D02*
X125511905Y-94192914D01*
X125511905Y-94192914D02*
X125559524Y-94097676D01*
X125559524Y-94097676D02*
X125654762Y-94002438D01*
X125654762Y-94002438D02*
X125797619Y-93954819D01*
X125797619Y-93954819D02*
X125892857Y-93954819D01*
X125892857Y-93954819D02*
X126035714Y-94002438D01*
X126035714Y-94002438D02*
X126083333Y-94050057D01*
X127035714Y-94954819D02*
X126464286Y-94954819D01*
X126750000Y-94954819D02*
X126750000Y-93954819D01*
X126750000Y-93954819D02*
X126654762Y-94097676D01*
X126654762Y-94097676D02*
X126559524Y-94192914D01*
X126559524Y-94192914D02*
X126464286Y-94240533D01*
X107954819Y-95166666D02*
X107478628Y-95499999D01*
X107954819Y-95738094D02*
X106954819Y-95738094D01*
X106954819Y-95738094D02*
X106954819Y-95357142D01*
X106954819Y-95357142D02*
X107002438Y-95261904D01*
X107002438Y-95261904D02*
X107050057Y-95214285D01*
X107050057Y-95214285D02*
X107145295Y-95166666D01*
X107145295Y-95166666D02*
X107288152Y-95166666D01*
X107288152Y-95166666D02*
X107383390Y-95214285D01*
X107383390Y-95214285D02*
X107431009Y-95261904D01*
X107431009Y-95261904D02*
X107478628Y-95357142D01*
X107478628Y-95357142D02*
X107478628Y-95738094D01*
X107050057Y-94785713D02*
X107002438Y-94738094D01*
X107002438Y-94738094D02*
X106954819Y-94642856D01*
X106954819Y-94642856D02*
X106954819Y-94404761D01*
X106954819Y-94404761D02*
X107002438Y-94309523D01*
X107002438Y-94309523D02*
X107050057Y-94261904D01*
X107050057Y-94261904D02*
X107145295Y-94214285D01*
X107145295Y-94214285D02*
X107240533Y-94214285D01*
X107240533Y-94214285D02*
X107383390Y-94261904D01*
X107383390Y-94261904D02*
X107954819Y-94833332D01*
X107954819Y-94833332D02*
X107954819Y-94214285D01*
X144523333Y-101454819D02*
X144190000Y-100978628D01*
X143951905Y-101454819D02*
X143951905Y-100454819D01*
X143951905Y-100454819D02*
X144332857Y-100454819D01*
X144332857Y-100454819D02*
X144428095Y-100502438D01*
X144428095Y-100502438D02*
X144475714Y-100550057D01*
X144475714Y-100550057D02*
X144523333Y-100645295D01*
X144523333Y-100645295D02*
X144523333Y-100788152D01*
X144523333Y-100788152D02*
X144475714Y-100883390D01*
X144475714Y-100883390D02*
X144428095Y-100931009D01*
X144428095Y-100931009D02*
X144332857Y-100978628D01*
X144332857Y-100978628D02*
X143951905Y-100978628D01*
X145380476Y-100454819D02*
X145190000Y-100454819D01*
X145190000Y-100454819D02*
X145094762Y-100502438D01*
X145094762Y-100502438D02*
X145047143Y-100550057D01*
X145047143Y-100550057D02*
X144951905Y-100692914D01*
X144951905Y-100692914D02*
X144904286Y-100883390D01*
X144904286Y-100883390D02*
X144904286Y-101264342D01*
X144904286Y-101264342D02*
X144951905Y-101359580D01*
X144951905Y-101359580D02*
X144999524Y-101407200D01*
X144999524Y-101407200D02*
X145094762Y-101454819D01*
X145094762Y-101454819D02*
X145285238Y-101454819D01*
X145285238Y-101454819D02*
X145380476Y-101407200D01*
X145380476Y-101407200D02*
X145428095Y-101359580D01*
X145428095Y-101359580D02*
X145475714Y-101264342D01*
X145475714Y-101264342D02*
X145475714Y-101026247D01*
X145475714Y-101026247D02*
X145428095Y-100931009D01*
X145428095Y-100931009D02*
X145380476Y-100883390D01*
X145380476Y-100883390D02*
X145285238Y-100835771D01*
X145285238Y-100835771D02*
X145094762Y-100835771D01*
X145094762Y-100835771D02*
X144999524Y-100883390D01*
X144999524Y-100883390D02*
X144951905Y-100931009D01*
X144951905Y-100931009D02*
X144904286Y-101026247D01*
X146859580Y-65416666D02*
X146907200Y-65464285D01*
X146907200Y-65464285D02*
X146954819Y-65607142D01*
X146954819Y-65607142D02*
X146954819Y-65702380D01*
X146954819Y-65702380D02*
X146907200Y-65845237D01*
X146907200Y-65845237D02*
X146811961Y-65940475D01*
X146811961Y-65940475D02*
X146716723Y-65988094D01*
X146716723Y-65988094D02*
X146526247Y-66035713D01*
X146526247Y-66035713D02*
X146383390Y-66035713D01*
X146383390Y-66035713D02*
X146192914Y-65988094D01*
X146192914Y-65988094D02*
X146097676Y-65940475D01*
X146097676Y-65940475D02*
X146002438Y-65845237D01*
X146002438Y-65845237D02*
X145954819Y-65702380D01*
X145954819Y-65702380D02*
X145954819Y-65607142D01*
X145954819Y-65607142D02*
X146002438Y-65464285D01*
X146002438Y-65464285D02*
X146050057Y-65416666D01*
X146288152Y-64559523D02*
X146954819Y-64559523D01*
X145907200Y-64797618D02*
X146621485Y-65035713D01*
X146621485Y-65035713D02*
X146621485Y-64416666D01*
X122357142Y-56859580D02*
X122309523Y-56907200D01*
X122309523Y-56907200D02*
X122166666Y-56954819D01*
X122166666Y-56954819D02*
X122071428Y-56954819D01*
X122071428Y-56954819D02*
X121928571Y-56907200D01*
X121928571Y-56907200D02*
X121833333Y-56811961D01*
X121833333Y-56811961D02*
X121785714Y-56716723D01*
X121785714Y-56716723D02*
X121738095Y-56526247D01*
X121738095Y-56526247D02*
X121738095Y-56383390D01*
X121738095Y-56383390D02*
X121785714Y-56192914D01*
X121785714Y-56192914D02*
X121833333Y-56097676D01*
X121833333Y-56097676D02*
X121928571Y-56002438D01*
X121928571Y-56002438D02*
X122071428Y-55954819D01*
X122071428Y-55954819D02*
X122166666Y-55954819D01*
X122166666Y-55954819D02*
X122309523Y-56002438D01*
X122309523Y-56002438D02*
X122357142Y-56050057D01*
X123309523Y-56954819D02*
X122738095Y-56954819D01*
X123023809Y-56954819D02*
X123023809Y-55954819D01*
X123023809Y-55954819D02*
X122928571Y-56097676D01*
X122928571Y-56097676D02*
X122833333Y-56192914D01*
X122833333Y-56192914D02*
X122738095Y-56240533D01*
X123928571Y-55954819D02*
X124023809Y-55954819D01*
X124023809Y-55954819D02*
X124119047Y-56002438D01*
X124119047Y-56002438D02*
X124166666Y-56050057D01*
X124166666Y-56050057D02*
X124214285Y-56145295D01*
X124214285Y-56145295D02*
X124261904Y-56335771D01*
X124261904Y-56335771D02*
X124261904Y-56573866D01*
X124261904Y-56573866D02*
X124214285Y-56764342D01*
X124214285Y-56764342D02*
X124166666Y-56859580D01*
X124166666Y-56859580D02*
X124119047Y-56907200D01*
X124119047Y-56907200D02*
X124023809Y-56954819D01*
X124023809Y-56954819D02*
X123928571Y-56954819D01*
X123928571Y-56954819D02*
X123833333Y-56907200D01*
X123833333Y-56907200D02*
X123785714Y-56859580D01*
X123785714Y-56859580D02*
X123738095Y-56764342D01*
X123738095Y-56764342D02*
X123690476Y-56573866D01*
X123690476Y-56573866D02*
X123690476Y-56335771D01*
X123690476Y-56335771D02*
X123738095Y-56145295D01*
X123738095Y-56145295D02*
X123785714Y-56050057D01*
X123785714Y-56050057D02*
X123833333Y-56002438D01*
X123833333Y-56002438D02*
X123928571Y-55954819D01*
X111954819Y-105666666D02*
X111478628Y-105999999D01*
X111954819Y-106238094D02*
X110954819Y-106238094D01*
X110954819Y-106238094D02*
X110954819Y-105857142D01*
X110954819Y-105857142D02*
X111002438Y-105761904D01*
X111002438Y-105761904D02*
X111050057Y-105714285D01*
X111050057Y-105714285D02*
X111145295Y-105666666D01*
X111145295Y-105666666D02*
X111288152Y-105666666D01*
X111288152Y-105666666D02*
X111383390Y-105714285D01*
X111383390Y-105714285D02*
X111431009Y-105761904D01*
X111431009Y-105761904D02*
X111478628Y-105857142D01*
X111478628Y-105857142D02*
X111478628Y-106238094D01*
X111288152Y-104809523D02*
X111954819Y-104809523D01*
X110907200Y-105047618D02*
X111621485Y-105285713D01*
X111621485Y-105285713D02*
X111621485Y-104666666D01*
X151333333Y-85954819D02*
X151000000Y-85478628D01*
X150761905Y-85954819D02*
X150761905Y-84954819D01*
X150761905Y-84954819D02*
X151142857Y-84954819D01*
X151142857Y-84954819D02*
X151238095Y-85002438D01*
X151238095Y-85002438D02*
X151285714Y-85050057D01*
X151285714Y-85050057D02*
X151333333Y-85145295D01*
X151333333Y-85145295D02*
X151333333Y-85288152D01*
X151333333Y-85288152D02*
X151285714Y-85383390D01*
X151285714Y-85383390D02*
X151238095Y-85431009D01*
X151238095Y-85431009D02*
X151142857Y-85478628D01*
X151142857Y-85478628D02*
X150761905Y-85478628D01*
X151904762Y-85383390D02*
X151809524Y-85335771D01*
X151809524Y-85335771D02*
X151761905Y-85288152D01*
X151761905Y-85288152D02*
X151714286Y-85192914D01*
X151714286Y-85192914D02*
X151714286Y-85145295D01*
X151714286Y-85145295D02*
X151761905Y-85050057D01*
X151761905Y-85050057D02*
X151809524Y-85002438D01*
X151809524Y-85002438D02*
X151904762Y-84954819D01*
X151904762Y-84954819D02*
X152095238Y-84954819D01*
X152095238Y-84954819D02*
X152190476Y-85002438D01*
X152190476Y-85002438D02*
X152238095Y-85050057D01*
X152238095Y-85050057D02*
X152285714Y-85145295D01*
X152285714Y-85145295D02*
X152285714Y-85192914D01*
X152285714Y-85192914D02*
X152238095Y-85288152D01*
X152238095Y-85288152D02*
X152190476Y-85335771D01*
X152190476Y-85335771D02*
X152095238Y-85383390D01*
X152095238Y-85383390D02*
X151904762Y-85383390D01*
X151904762Y-85383390D02*
X151809524Y-85431009D01*
X151809524Y-85431009D02*
X151761905Y-85478628D01*
X151761905Y-85478628D02*
X151714286Y-85573866D01*
X151714286Y-85573866D02*
X151714286Y-85764342D01*
X151714286Y-85764342D02*
X151761905Y-85859580D01*
X151761905Y-85859580D02*
X151809524Y-85907200D01*
X151809524Y-85907200D02*
X151904762Y-85954819D01*
X151904762Y-85954819D02*
X152095238Y-85954819D01*
X152095238Y-85954819D02*
X152190476Y-85907200D01*
X152190476Y-85907200D02*
X152238095Y-85859580D01*
X152238095Y-85859580D02*
X152285714Y-85764342D01*
X152285714Y-85764342D02*
X152285714Y-85573866D01*
X152285714Y-85573866D02*
X152238095Y-85478628D01*
X152238095Y-85478628D02*
X152190476Y-85431009D01*
X152190476Y-85431009D02*
X152095238Y-85383390D01*
X135354819Y-60038094D02*
X134354819Y-60038094D01*
X134354819Y-60038094D02*
X134354819Y-59799999D01*
X134354819Y-59799999D02*
X134402438Y-59657142D01*
X134402438Y-59657142D02*
X134497676Y-59561904D01*
X134497676Y-59561904D02*
X134592914Y-59514285D01*
X134592914Y-59514285D02*
X134783390Y-59466666D01*
X134783390Y-59466666D02*
X134926247Y-59466666D01*
X134926247Y-59466666D02*
X135116723Y-59514285D01*
X135116723Y-59514285D02*
X135211961Y-59561904D01*
X135211961Y-59561904D02*
X135307200Y-59657142D01*
X135307200Y-59657142D02*
X135354819Y-59799999D01*
X135354819Y-59799999D02*
X135354819Y-60038094D01*
X135354819Y-58514285D02*
X135354819Y-59085713D01*
X135354819Y-58799999D02*
X134354819Y-58799999D01*
X134354819Y-58799999D02*
X134497676Y-58895237D01*
X134497676Y-58895237D02*
X134592914Y-58990475D01*
X134592914Y-58990475D02*
X134640533Y-59085713D01*
X135454819Y-65261904D02*
X134454819Y-65261904D01*
X135454819Y-64690476D02*
X134883390Y-65119047D01*
X134454819Y-64690476D02*
X135026247Y-65261904D01*
X127499999Y-102454819D02*
X127023809Y-102454819D01*
X127023809Y-102454819D02*
X127023809Y-101454819D01*
X127833333Y-101931009D02*
X128166666Y-101931009D01*
X128309523Y-102454819D02*
X127833333Y-102454819D01*
X127833333Y-102454819D02*
X127833333Y-101454819D01*
X127833333Y-101454819D02*
X128309523Y-101454819D01*
X128738095Y-102454819D02*
X128738095Y-101454819D01*
X128738095Y-101454819D02*
X128976190Y-101454819D01*
X128976190Y-101454819D02*
X129119047Y-101502438D01*
X129119047Y-101502438D02*
X129214285Y-101597676D01*
X129214285Y-101597676D02*
X129261904Y-101692914D01*
X129261904Y-101692914D02*
X129309523Y-101883390D01*
X129309523Y-101883390D02*
X129309523Y-102026247D01*
X129309523Y-102026247D02*
X129261904Y-102216723D01*
X129261904Y-102216723D02*
X129214285Y-102311961D01*
X129214285Y-102311961D02*
X129119047Y-102407200D01*
X129119047Y-102407200D02*
X128976190Y-102454819D01*
X128976190Y-102454819D02*
X128738095Y-102454819D01*
X129500000Y-102550057D02*
X130261904Y-102550057D01*
X131071428Y-102454819D02*
X130738095Y-101978628D01*
X130500000Y-102454819D02*
X130500000Y-101454819D01*
X130500000Y-101454819D02*
X130880952Y-101454819D01*
X130880952Y-101454819D02*
X130976190Y-101502438D01*
X130976190Y-101502438D02*
X131023809Y-101550057D01*
X131023809Y-101550057D02*
X131071428Y-101645295D01*
X131071428Y-101645295D02*
X131071428Y-101788152D01*
X131071428Y-101788152D02*
X131023809Y-101883390D01*
X131023809Y-101883390D02*
X130976190Y-101931009D01*
X130976190Y-101931009D02*
X130880952Y-101978628D01*
X130880952Y-101978628D02*
X130500000Y-101978628D01*
X132023809Y-102454819D02*
X131452381Y-102454819D01*
X131738095Y-102454819D02*
X131738095Y-101454819D01*
X131738095Y-101454819D02*
X131642857Y-101597676D01*
X131642857Y-101597676D02*
X131547619Y-101692914D01*
X131547619Y-101692914D02*
X131452381Y-101740533D01*
X149904761Y-108050057D02*
X149809523Y-108002438D01*
X149809523Y-108002438D02*
X149714285Y-107907200D01*
X149714285Y-107907200D02*
X149571428Y-107764342D01*
X149571428Y-107764342D02*
X149476190Y-107716723D01*
X149476190Y-107716723D02*
X149380952Y-107716723D01*
X149428571Y-107954819D02*
X149333333Y-107907200D01*
X149333333Y-107907200D02*
X149238095Y-107811961D01*
X149238095Y-107811961D02*
X149190476Y-107621485D01*
X149190476Y-107621485D02*
X149190476Y-107288152D01*
X149190476Y-107288152D02*
X149238095Y-107097676D01*
X149238095Y-107097676D02*
X149333333Y-107002438D01*
X149333333Y-107002438D02*
X149428571Y-106954819D01*
X149428571Y-106954819D02*
X149619047Y-106954819D01*
X149619047Y-106954819D02*
X149714285Y-107002438D01*
X149714285Y-107002438D02*
X149809523Y-107097676D01*
X149809523Y-107097676D02*
X149857142Y-107288152D01*
X149857142Y-107288152D02*
X149857142Y-107621485D01*
X149857142Y-107621485D02*
X149809523Y-107811961D01*
X149809523Y-107811961D02*
X149714285Y-107907200D01*
X149714285Y-107907200D02*
X149619047Y-107954819D01*
X149619047Y-107954819D02*
X149428571Y-107954819D01*
X150238095Y-107050057D02*
X150285714Y-107002438D01*
X150285714Y-107002438D02*
X150380952Y-106954819D01*
X150380952Y-106954819D02*
X150619047Y-106954819D01*
X150619047Y-106954819D02*
X150714285Y-107002438D01*
X150714285Y-107002438D02*
X150761904Y-107050057D01*
X150761904Y-107050057D02*
X150809523Y-107145295D01*
X150809523Y-107145295D02*
X150809523Y-107240533D01*
X150809523Y-107240533D02*
X150761904Y-107383390D01*
X150761904Y-107383390D02*
X150190476Y-107954819D01*
X150190476Y-107954819D02*
X150809523Y-107954819D01*
X124583333Y-76859580D02*
X124535714Y-76907200D01*
X124535714Y-76907200D02*
X124392857Y-76954819D01*
X124392857Y-76954819D02*
X124297619Y-76954819D01*
X124297619Y-76954819D02*
X124154762Y-76907200D01*
X124154762Y-76907200D02*
X124059524Y-76811961D01*
X124059524Y-76811961D02*
X124011905Y-76716723D01*
X124011905Y-76716723D02*
X123964286Y-76526247D01*
X123964286Y-76526247D02*
X123964286Y-76383390D01*
X123964286Y-76383390D02*
X124011905Y-76192914D01*
X124011905Y-76192914D02*
X124059524Y-76097676D01*
X124059524Y-76097676D02*
X124154762Y-76002438D01*
X124154762Y-76002438D02*
X124297619Y-75954819D01*
X124297619Y-75954819D02*
X124392857Y-75954819D01*
X124392857Y-75954819D02*
X124535714Y-76002438D01*
X124535714Y-76002438D02*
X124583333Y-76050057D01*
X124916667Y-75954819D02*
X125583333Y-75954819D01*
X125583333Y-75954819D02*
X125154762Y-76954819D01*
X127954819Y-59642857D02*
X127478628Y-59976190D01*
X127954819Y-60214285D02*
X126954819Y-60214285D01*
X126954819Y-60214285D02*
X126954819Y-59833333D01*
X126954819Y-59833333D02*
X127002438Y-59738095D01*
X127002438Y-59738095D02*
X127050057Y-59690476D01*
X127050057Y-59690476D02*
X127145295Y-59642857D01*
X127145295Y-59642857D02*
X127288152Y-59642857D01*
X127288152Y-59642857D02*
X127383390Y-59690476D01*
X127383390Y-59690476D02*
X127431009Y-59738095D01*
X127431009Y-59738095D02*
X127478628Y-59833333D01*
X127478628Y-59833333D02*
X127478628Y-60214285D01*
X127954819Y-58690476D02*
X127954819Y-59261904D01*
X127954819Y-58976190D02*
X126954819Y-58976190D01*
X126954819Y-58976190D02*
X127097676Y-59071428D01*
X127097676Y-59071428D02*
X127192914Y-59166666D01*
X127192914Y-59166666D02*
X127240533Y-59261904D01*
X126954819Y-57785714D02*
X126954819Y-58261904D01*
X126954819Y-58261904D02*
X127431009Y-58309523D01*
X127431009Y-58309523D02*
X127383390Y-58261904D01*
X127383390Y-58261904D02*
X127335771Y-58166666D01*
X127335771Y-58166666D02*
X127335771Y-57928571D01*
X127335771Y-57928571D02*
X127383390Y-57833333D01*
X127383390Y-57833333D02*
X127431009Y-57785714D01*
X127431009Y-57785714D02*
X127526247Y-57738095D01*
X127526247Y-57738095D02*
X127764342Y-57738095D01*
X127764342Y-57738095D02*
X127859580Y-57785714D01*
X127859580Y-57785714D02*
X127907200Y-57833333D01*
X127907200Y-57833333D02*
X127954819Y-57928571D01*
X127954819Y-57928571D02*
X127954819Y-58166666D01*
X127954819Y-58166666D02*
X127907200Y-58261904D01*
X127907200Y-58261904D02*
X127859580Y-58309523D01*
X115859580Y-106476666D02*
X115907200Y-106524285D01*
X115907200Y-106524285D02*
X115954819Y-106667142D01*
X115954819Y-106667142D02*
X115954819Y-106762380D01*
X115954819Y-106762380D02*
X115907200Y-106905237D01*
X115907200Y-106905237D02*
X115811961Y-107000475D01*
X115811961Y-107000475D02*
X115716723Y-107048094D01*
X115716723Y-107048094D02*
X115526247Y-107095713D01*
X115526247Y-107095713D02*
X115383390Y-107095713D01*
X115383390Y-107095713D02*
X115192914Y-107048094D01*
X115192914Y-107048094D02*
X115097676Y-107000475D01*
X115097676Y-107000475D02*
X115002438Y-106905237D01*
X115002438Y-106905237D02*
X114954819Y-106762380D01*
X114954819Y-106762380D02*
X114954819Y-106667142D01*
X114954819Y-106667142D02*
X115002438Y-106524285D01*
X115002438Y-106524285D02*
X115050057Y-106476666D01*
X114954819Y-105571904D02*
X114954819Y-106048094D01*
X114954819Y-106048094D02*
X115431009Y-106095713D01*
X115431009Y-106095713D02*
X115383390Y-106048094D01*
X115383390Y-106048094D02*
X115335771Y-105952856D01*
X115335771Y-105952856D02*
X115335771Y-105714761D01*
X115335771Y-105714761D02*
X115383390Y-105619523D01*
X115383390Y-105619523D02*
X115431009Y-105571904D01*
X115431009Y-105571904D02*
X115526247Y-105524285D01*
X115526247Y-105524285D02*
X115764342Y-105524285D01*
X115764342Y-105524285D02*
X115859580Y-105571904D01*
X115859580Y-105571904D02*
X115907200Y-105619523D01*
X115907200Y-105619523D02*
X115954819Y-105714761D01*
X115954819Y-105714761D02*
X115954819Y-105952856D01*
X115954819Y-105952856D02*
X115907200Y-106048094D01*
X115907200Y-106048094D02*
X115859580Y-106095713D01*
X131954819Y-72642857D02*
X131478628Y-72976190D01*
X131954819Y-73214285D02*
X130954819Y-73214285D01*
X130954819Y-73214285D02*
X130954819Y-72833333D01*
X130954819Y-72833333D02*
X131002438Y-72738095D01*
X131002438Y-72738095D02*
X131050057Y-72690476D01*
X131050057Y-72690476D02*
X131145295Y-72642857D01*
X131145295Y-72642857D02*
X131288152Y-72642857D01*
X131288152Y-72642857D02*
X131383390Y-72690476D01*
X131383390Y-72690476D02*
X131431009Y-72738095D01*
X131431009Y-72738095D02*
X131478628Y-72833333D01*
X131478628Y-72833333D02*
X131478628Y-73214285D01*
X131050057Y-72261904D02*
X131002438Y-72214285D01*
X131002438Y-72214285D02*
X130954819Y-72119047D01*
X130954819Y-72119047D02*
X130954819Y-71880952D01*
X130954819Y-71880952D02*
X131002438Y-71785714D01*
X131002438Y-71785714D02*
X131050057Y-71738095D01*
X131050057Y-71738095D02*
X131145295Y-71690476D01*
X131145295Y-71690476D02*
X131240533Y-71690476D01*
X131240533Y-71690476D02*
X131383390Y-71738095D01*
X131383390Y-71738095D02*
X131954819Y-72309523D01*
X131954819Y-72309523D02*
X131954819Y-71690476D01*
X131954819Y-70738095D02*
X131954819Y-71309523D01*
X131954819Y-71023809D02*
X130954819Y-71023809D01*
X130954819Y-71023809D02*
X131097676Y-71119047D01*
X131097676Y-71119047D02*
X131192914Y-71214285D01*
X131192914Y-71214285D02*
X131240533Y-71309523D01*
X118547618Y-69954819D02*
X118547618Y-68954819D01*
X118547618Y-68954819D02*
X118928570Y-68954819D01*
X118928570Y-68954819D02*
X119023808Y-69002438D01*
X119023808Y-69002438D02*
X119071427Y-69050057D01*
X119071427Y-69050057D02*
X119119046Y-69145295D01*
X119119046Y-69145295D02*
X119119046Y-69288152D01*
X119119046Y-69288152D02*
X119071427Y-69383390D01*
X119071427Y-69383390D02*
X119023808Y-69431009D01*
X119023808Y-69431009D02*
X118928570Y-69478628D01*
X118928570Y-69478628D02*
X118547618Y-69478628D01*
X119690475Y-69954819D02*
X119595237Y-69907200D01*
X119595237Y-69907200D02*
X119547618Y-69859580D01*
X119547618Y-69859580D02*
X119499999Y-69764342D01*
X119499999Y-69764342D02*
X119499999Y-69478628D01*
X119499999Y-69478628D02*
X119547618Y-69383390D01*
X119547618Y-69383390D02*
X119595237Y-69335771D01*
X119595237Y-69335771D02*
X119690475Y-69288152D01*
X119690475Y-69288152D02*
X119833332Y-69288152D01*
X119833332Y-69288152D02*
X119928570Y-69335771D01*
X119928570Y-69335771D02*
X119976189Y-69383390D01*
X119976189Y-69383390D02*
X120023808Y-69478628D01*
X120023808Y-69478628D02*
X120023808Y-69764342D01*
X120023808Y-69764342D02*
X119976189Y-69859580D01*
X119976189Y-69859580D02*
X119928570Y-69907200D01*
X119928570Y-69907200D02*
X119833332Y-69954819D01*
X119833332Y-69954819D02*
X119690475Y-69954819D01*
X120309523Y-69288152D02*
X120690475Y-69288152D01*
X120452380Y-68954819D02*
X120452380Y-69811961D01*
X120452380Y-69811961D02*
X120499999Y-69907200D01*
X120499999Y-69907200D02*
X120595237Y-69954819D01*
X120595237Y-69954819D02*
X120690475Y-69954819D01*
X121404761Y-69907200D02*
X121309523Y-69954819D01*
X121309523Y-69954819D02*
X121119047Y-69954819D01*
X121119047Y-69954819D02*
X121023809Y-69907200D01*
X121023809Y-69907200D02*
X120976190Y-69811961D01*
X120976190Y-69811961D02*
X120976190Y-69431009D01*
X120976190Y-69431009D02*
X121023809Y-69335771D01*
X121023809Y-69335771D02*
X121119047Y-69288152D01*
X121119047Y-69288152D02*
X121309523Y-69288152D01*
X121309523Y-69288152D02*
X121404761Y-69335771D01*
X121404761Y-69335771D02*
X121452380Y-69431009D01*
X121452380Y-69431009D02*
X121452380Y-69526247D01*
X121452380Y-69526247D02*
X120976190Y-69621485D01*
X121880952Y-69288152D02*
X121880952Y-69954819D01*
X121880952Y-69383390D02*
X121928571Y-69335771D01*
X121928571Y-69335771D02*
X122023809Y-69288152D01*
X122023809Y-69288152D02*
X122166666Y-69288152D01*
X122166666Y-69288152D02*
X122261904Y-69335771D01*
X122261904Y-69335771D02*
X122309523Y-69431009D01*
X122309523Y-69431009D02*
X122309523Y-69954819D01*
X122642857Y-69288152D02*
X123023809Y-69288152D01*
X122785714Y-68954819D02*
X122785714Y-69811961D01*
X122785714Y-69811961D02*
X122833333Y-69907200D01*
X122833333Y-69907200D02*
X122928571Y-69954819D01*
X122928571Y-69954819D02*
X123023809Y-69954819D01*
X123357143Y-69954819D02*
X123357143Y-69288152D01*
X123357143Y-68954819D02*
X123309524Y-69002438D01*
X123309524Y-69002438D02*
X123357143Y-69050057D01*
X123357143Y-69050057D02*
X123404762Y-69002438D01*
X123404762Y-69002438D02*
X123357143Y-68954819D01*
X123357143Y-68954819D02*
X123357143Y-69050057D01*
X123976190Y-69954819D02*
X123880952Y-69907200D01*
X123880952Y-69907200D02*
X123833333Y-69859580D01*
X123833333Y-69859580D02*
X123785714Y-69764342D01*
X123785714Y-69764342D02*
X123785714Y-69478628D01*
X123785714Y-69478628D02*
X123833333Y-69383390D01*
X123833333Y-69383390D02*
X123880952Y-69335771D01*
X123880952Y-69335771D02*
X123976190Y-69288152D01*
X123976190Y-69288152D02*
X124119047Y-69288152D01*
X124119047Y-69288152D02*
X124214285Y-69335771D01*
X124214285Y-69335771D02*
X124261904Y-69383390D01*
X124261904Y-69383390D02*
X124309523Y-69478628D01*
X124309523Y-69478628D02*
X124309523Y-69764342D01*
X124309523Y-69764342D02*
X124261904Y-69859580D01*
X124261904Y-69859580D02*
X124214285Y-69907200D01*
X124214285Y-69907200D02*
X124119047Y-69954819D01*
X124119047Y-69954819D02*
X123976190Y-69954819D01*
X124738095Y-69954819D02*
X124738095Y-69288152D01*
X124738095Y-69383390D02*
X124785714Y-69335771D01*
X124785714Y-69335771D02*
X124880952Y-69288152D01*
X124880952Y-69288152D02*
X125023809Y-69288152D01*
X125023809Y-69288152D02*
X125119047Y-69335771D01*
X125119047Y-69335771D02*
X125166666Y-69431009D01*
X125166666Y-69431009D02*
X125166666Y-69954819D01*
X125166666Y-69431009D02*
X125214285Y-69335771D01*
X125214285Y-69335771D02*
X125309523Y-69288152D01*
X125309523Y-69288152D02*
X125452380Y-69288152D01*
X125452380Y-69288152D02*
X125547619Y-69335771D01*
X125547619Y-69335771D02*
X125595238Y-69431009D01*
X125595238Y-69431009D02*
X125595238Y-69954819D01*
X126452380Y-69907200D02*
X126357142Y-69954819D01*
X126357142Y-69954819D02*
X126166666Y-69954819D01*
X126166666Y-69954819D02*
X126071428Y-69907200D01*
X126071428Y-69907200D02*
X126023809Y-69811961D01*
X126023809Y-69811961D02*
X126023809Y-69431009D01*
X126023809Y-69431009D02*
X126071428Y-69335771D01*
X126071428Y-69335771D02*
X126166666Y-69288152D01*
X126166666Y-69288152D02*
X126357142Y-69288152D01*
X126357142Y-69288152D02*
X126452380Y-69335771D01*
X126452380Y-69335771D02*
X126499999Y-69431009D01*
X126499999Y-69431009D02*
X126499999Y-69526247D01*
X126499999Y-69526247D02*
X126023809Y-69621485D01*
X126785714Y-69288152D02*
X127166666Y-69288152D01*
X126928571Y-68954819D02*
X126928571Y-69811961D01*
X126928571Y-69811961D02*
X126976190Y-69907200D01*
X126976190Y-69907200D02*
X127071428Y-69954819D01*
X127071428Y-69954819D02*
X127166666Y-69954819D01*
X127880952Y-69907200D02*
X127785714Y-69954819D01*
X127785714Y-69954819D02*
X127595238Y-69954819D01*
X127595238Y-69954819D02*
X127500000Y-69907200D01*
X127500000Y-69907200D02*
X127452381Y-69811961D01*
X127452381Y-69811961D02*
X127452381Y-69431009D01*
X127452381Y-69431009D02*
X127500000Y-69335771D01*
X127500000Y-69335771D02*
X127595238Y-69288152D01*
X127595238Y-69288152D02*
X127785714Y-69288152D01*
X127785714Y-69288152D02*
X127880952Y-69335771D01*
X127880952Y-69335771D02*
X127928571Y-69431009D01*
X127928571Y-69431009D02*
X127928571Y-69526247D01*
X127928571Y-69526247D02*
X127452381Y-69621485D01*
X128357143Y-69954819D02*
X128357143Y-69288152D01*
X128357143Y-69478628D02*
X128404762Y-69383390D01*
X128404762Y-69383390D02*
X128452381Y-69335771D01*
X128452381Y-69335771D02*
X128547619Y-69288152D01*
X128547619Y-69288152D02*
X128642857Y-69288152D01*
X129500000Y-69954819D02*
X128928572Y-69954819D01*
X129214286Y-69954819D02*
X129214286Y-68954819D01*
X129214286Y-68954819D02*
X129119048Y-69097676D01*
X129119048Y-69097676D02*
X129023810Y-69192914D01*
X129023810Y-69192914D02*
X128928572Y-69240533D01*
X126333333Y-91454819D02*
X126000000Y-90978628D01*
X125761905Y-91454819D02*
X125761905Y-90454819D01*
X125761905Y-90454819D02*
X126142857Y-90454819D01*
X126142857Y-90454819D02*
X126238095Y-90502438D01*
X126238095Y-90502438D02*
X126285714Y-90550057D01*
X126285714Y-90550057D02*
X126333333Y-90645295D01*
X126333333Y-90645295D02*
X126333333Y-90788152D01*
X126333333Y-90788152D02*
X126285714Y-90883390D01*
X126285714Y-90883390D02*
X126238095Y-90931009D01*
X126238095Y-90931009D02*
X126142857Y-90978628D01*
X126142857Y-90978628D02*
X125761905Y-90978628D01*
X127285714Y-91454819D02*
X126714286Y-91454819D01*
X127000000Y-91454819D02*
X127000000Y-90454819D01*
X127000000Y-90454819D02*
X126904762Y-90597676D01*
X126904762Y-90597676D02*
X126809524Y-90692914D01*
X126809524Y-90692914D02*
X126714286Y-90740533D01*
X146954819Y-55952857D02*
X146478628Y-56286190D01*
X146954819Y-56524285D02*
X145954819Y-56524285D01*
X145954819Y-56524285D02*
X145954819Y-56143333D01*
X145954819Y-56143333D02*
X146002438Y-56048095D01*
X146002438Y-56048095D02*
X146050057Y-56000476D01*
X146050057Y-56000476D02*
X146145295Y-55952857D01*
X146145295Y-55952857D02*
X146288152Y-55952857D01*
X146288152Y-55952857D02*
X146383390Y-56000476D01*
X146383390Y-56000476D02*
X146431009Y-56048095D01*
X146431009Y-56048095D02*
X146478628Y-56143333D01*
X146478628Y-56143333D02*
X146478628Y-56524285D01*
X146050057Y-55571904D02*
X146002438Y-55524285D01*
X146002438Y-55524285D02*
X145954819Y-55429047D01*
X145954819Y-55429047D02*
X145954819Y-55190952D01*
X145954819Y-55190952D02*
X146002438Y-55095714D01*
X146002438Y-55095714D02*
X146050057Y-55048095D01*
X146050057Y-55048095D02*
X146145295Y-55000476D01*
X146145295Y-55000476D02*
X146240533Y-55000476D01*
X146240533Y-55000476D02*
X146383390Y-55048095D01*
X146383390Y-55048095D02*
X146954819Y-55619523D01*
X146954819Y-55619523D02*
X146954819Y-55000476D01*
X145954819Y-54381428D02*
X145954819Y-54286190D01*
X145954819Y-54286190D02*
X146002438Y-54190952D01*
X146002438Y-54190952D02*
X146050057Y-54143333D01*
X146050057Y-54143333D02*
X146145295Y-54095714D01*
X146145295Y-54095714D02*
X146335771Y-54048095D01*
X146335771Y-54048095D02*
X146573866Y-54048095D01*
X146573866Y-54048095D02*
X146764342Y-54095714D01*
X146764342Y-54095714D02*
X146859580Y-54143333D01*
X146859580Y-54143333D02*
X146907200Y-54190952D01*
X146907200Y-54190952D02*
X146954819Y-54286190D01*
X146954819Y-54286190D02*
X146954819Y-54381428D01*
X146954819Y-54381428D02*
X146907200Y-54476666D01*
X146907200Y-54476666D02*
X146859580Y-54524285D01*
X146859580Y-54524285D02*
X146764342Y-54571904D01*
X146764342Y-54571904D02*
X146573866Y-54619523D01*
X146573866Y-54619523D02*
X146335771Y-54619523D01*
X146335771Y-54619523D02*
X146145295Y-54571904D01*
X146145295Y-54571904D02*
X146050057Y-54524285D01*
X146050057Y-54524285D02*
X146002438Y-54476666D01*
X146002438Y-54476666D02*
X145954819Y-54381428D01*
X136454819Y-93261904D02*
X137264342Y-93261904D01*
X137264342Y-93261904D02*
X137359580Y-93214285D01*
X137359580Y-93214285D02*
X137407200Y-93166666D01*
X137407200Y-93166666D02*
X137454819Y-93071428D01*
X137454819Y-93071428D02*
X137454819Y-92880952D01*
X137454819Y-92880952D02*
X137407200Y-92785714D01*
X137407200Y-92785714D02*
X137359580Y-92738095D01*
X137359580Y-92738095D02*
X137264342Y-92690476D01*
X137264342Y-92690476D02*
X136454819Y-92690476D01*
X136550057Y-92261904D02*
X136502438Y-92214285D01*
X136502438Y-92214285D02*
X136454819Y-92119047D01*
X136454819Y-92119047D02*
X136454819Y-91880952D01*
X136454819Y-91880952D02*
X136502438Y-91785714D01*
X136502438Y-91785714D02*
X136550057Y-91738095D01*
X136550057Y-91738095D02*
X136645295Y-91690476D01*
X136645295Y-91690476D02*
X136740533Y-91690476D01*
X136740533Y-91690476D02*
X136883390Y-91738095D01*
X136883390Y-91738095D02*
X137454819Y-92309523D01*
X137454819Y-92309523D02*
X137454819Y-91690476D01*
X136833333Y-84359580D02*
X136785714Y-84407200D01*
X136785714Y-84407200D02*
X136642857Y-84454819D01*
X136642857Y-84454819D02*
X136547619Y-84454819D01*
X136547619Y-84454819D02*
X136404762Y-84407200D01*
X136404762Y-84407200D02*
X136309524Y-84311961D01*
X136309524Y-84311961D02*
X136261905Y-84216723D01*
X136261905Y-84216723D02*
X136214286Y-84026247D01*
X136214286Y-84026247D02*
X136214286Y-83883390D01*
X136214286Y-83883390D02*
X136261905Y-83692914D01*
X136261905Y-83692914D02*
X136309524Y-83597676D01*
X136309524Y-83597676D02*
X136404762Y-83502438D01*
X136404762Y-83502438D02*
X136547619Y-83454819D01*
X136547619Y-83454819D02*
X136642857Y-83454819D01*
X136642857Y-83454819D02*
X136785714Y-83502438D01*
X136785714Y-83502438D02*
X136833333Y-83550057D01*
X137166667Y-83454819D02*
X137785714Y-83454819D01*
X137785714Y-83454819D02*
X137452381Y-83835771D01*
X137452381Y-83835771D02*
X137595238Y-83835771D01*
X137595238Y-83835771D02*
X137690476Y-83883390D01*
X137690476Y-83883390D02*
X137738095Y-83931009D01*
X137738095Y-83931009D02*
X137785714Y-84026247D01*
X137785714Y-84026247D02*
X137785714Y-84264342D01*
X137785714Y-84264342D02*
X137738095Y-84359580D01*
X137738095Y-84359580D02*
X137690476Y-84407200D01*
X137690476Y-84407200D02*
X137595238Y-84454819D01*
X137595238Y-84454819D02*
X137309524Y-84454819D01*
X137309524Y-84454819D02*
X137214286Y-84407200D01*
X137214286Y-84407200D02*
X137166667Y-84359580D01*
X149404761Y-111050057D02*
X149309523Y-111002438D01*
X149309523Y-111002438D02*
X149214285Y-110907200D01*
X149214285Y-110907200D02*
X149071428Y-110764342D01*
X149071428Y-110764342D02*
X148976190Y-110716723D01*
X148976190Y-110716723D02*
X148880952Y-110716723D01*
X148928571Y-110954819D02*
X148833333Y-110907200D01*
X148833333Y-110907200D02*
X148738095Y-110811961D01*
X148738095Y-110811961D02*
X148690476Y-110621485D01*
X148690476Y-110621485D02*
X148690476Y-110288152D01*
X148690476Y-110288152D02*
X148738095Y-110097676D01*
X148738095Y-110097676D02*
X148833333Y-110002438D01*
X148833333Y-110002438D02*
X148928571Y-109954819D01*
X148928571Y-109954819D02*
X149119047Y-109954819D01*
X149119047Y-109954819D02*
X149214285Y-110002438D01*
X149214285Y-110002438D02*
X149309523Y-110097676D01*
X149309523Y-110097676D02*
X149357142Y-110288152D01*
X149357142Y-110288152D02*
X149357142Y-110621485D01*
X149357142Y-110621485D02*
X149309523Y-110811961D01*
X149309523Y-110811961D02*
X149214285Y-110907200D01*
X149214285Y-110907200D02*
X149119047Y-110954819D01*
X149119047Y-110954819D02*
X148928571Y-110954819D01*
X150261904Y-109954819D02*
X149785714Y-109954819D01*
X149785714Y-109954819D02*
X149738095Y-110431009D01*
X149738095Y-110431009D02*
X149785714Y-110383390D01*
X149785714Y-110383390D02*
X149880952Y-110335771D01*
X149880952Y-110335771D02*
X150119047Y-110335771D01*
X150119047Y-110335771D02*
X150214285Y-110383390D01*
X150214285Y-110383390D02*
X150261904Y-110431009D01*
X150261904Y-110431009D02*
X150309523Y-110526247D01*
X150309523Y-110526247D02*
X150309523Y-110764342D01*
X150309523Y-110764342D02*
X150261904Y-110859580D01*
X150261904Y-110859580D02*
X150214285Y-110907200D01*
X150214285Y-110907200D02*
X150119047Y-110954819D01*
X150119047Y-110954819D02*
X149880952Y-110954819D01*
X149880952Y-110954819D02*
X149785714Y-110907200D01*
X149785714Y-110907200D02*
X149738095Y-110859580D01*
X145904761Y-80050057D02*
X145809523Y-80002438D01*
X145809523Y-80002438D02*
X145714285Y-79907200D01*
X145714285Y-79907200D02*
X145571428Y-79764342D01*
X145571428Y-79764342D02*
X145476190Y-79716723D01*
X145476190Y-79716723D02*
X145380952Y-79716723D01*
X145428571Y-79954819D02*
X145333333Y-79907200D01*
X145333333Y-79907200D02*
X145238095Y-79811961D01*
X145238095Y-79811961D02*
X145190476Y-79621485D01*
X145190476Y-79621485D02*
X145190476Y-79288152D01*
X145190476Y-79288152D02*
X145238095Y-79097676D01*
X145238095Y-79097676D02*
X145333333Y-79002438D01*
X145333333Y-79002438D02*
X145428571Y-78954819D01*
X145428571Y-78954819D02*
X145619047Y-78954819D01*
X145619047Y-78954819D02*
X145714285Y-79002438D01*
X145714285Y-79002438D02*
X145809523Y-79097676D01*
X145809523Y-79097676D02*
X145857142Y-79288152D01*
X145857142Y-79288152D02*
X145857142Y-79621485D01*
X145857142Y-79621485D02*
X145809523Y-79811961D01*
X145809523Y-79811961D02*
X145714285Y-79907200D01*
X145714285Y-79907200D02*
X145619047Y-79954819D01*
X145619047Y-79954819D02*
X145428571Y-79954819D01*
X146190476Y-78954819D02*
X146809523Y-78954819D01*
X146809523Y-78954819D02*
X146476190Y-79335771D01*
X146476190Y-79335771D02*
X146619047Y-79335771D01*
X146619047Y-79335771D02*
X146714285Y-79383390D01*
X146714285Y-79383390D02*
X146761904Y-79431009D01*
X146761904Y-79431009D02*
X146809523Y-79526247D01*
X146809523Y-79526247D02*
X146809523Y-79764342D01*
X146809523Y-79764342D02*
X146761904Y-79859580D01*
X146761904Y-79859580D02*
X146714285Y-79907200D01*
X146714285Y-79907200D02*
X146619047Y-79954819D01*
X146619047Y-79954819D02*
X146333333Y-79954819D01*
X146333333Y-79954819D02*
X146238095Y-79907200D01*
X146238095Y-79907200D02*
X146190476Y-79859580D01*
X146857142Y-96954819D02*
X146523809Y-96478628D01*
X146285714Y-96954819D02*
X146285714Y-95954819D01*
X146285714Y-95954819D02*
X146666666Y-95954819D01*
X146666666Y-95954819D02*
X146761904Y-96002438D01*
X146761904Y-96002438D02*
X146809523Y-96050057D01*
X146809523Y-96050057D02*
X146857142Y-96145295D01*
X146857142Y-96145295D02*
X146857142Y-96288152D01*
X146857142Y-96288152D02*
X146809523Y-96383390D01*
X146809523Y-96383390D02*
X146761904Y-96431009D01*
X146761904Y-96431009D02*
X146666666Y-96478628D01*
X146666666Y-96478628D02*
X146285714Y-96478628D01*
X147238095Y-96050057D02*
X147285714Y-96002438D01*
X147285714Y-96002438D02*
X147380952Y-95954819D01*
X147380952Y-95954819D02*
X147619047Y-95954819D01*
X147619047Y-95954819D02*
X147714285Y-96002438D01*
X147714285Y-96002438D02*
X147761904Y-96050057D01*
X147761904Y-96050057D02*
X147809523Y-96145295D01*
X147809523Y-96145295D02*
X147809523Y-96240533D01*
X147809523Y-96240533D02*
X147761904Y-96383390D01*
X147761904Y-96383390D02*
X147190476Y-96954819D01*
X147190476Y-96954819D02*
X147809523Y-96954819D01*
X148714285Y-95954819D02*
X148238095Y-95954819D01*
X148238095Y-95954819D02*
X148190476Y-96431009D01*
X148190476Y-96431009D02*
X148238095Y-96383390D01*
X148238095Y-96383390D02*
X148333333Y-96335771D01*
X148333333Y-96335771D02*
X148571428Y-96335771D01*
X148571428Y-96335771D02*
X148666666Y-96383390D01*
X148666666Y-96383390D02*
X148714285Y-96431009D01*
X148714285Y-96431009D02*
X148761904Y-96526247D01*
X148761904Y-96526247D02*
X148761904Y-96764342D01*
X148761904Y-96764342D02*
X148714285Y-96859580D01*
X148714285Y-96859580D02*
X148666666Y-96907200D01*
X148666666Y-96907200D02*
X148571428Y-96954819D01*
X148571428Y-96954819D02*
X148333333Y-96954819D01*
X148333333Y-96954819D02*
X148238095Y-96907200D01*
X148238095Y-96907200D02*
X148190476Y-96859580D01*
X125357142Y-80454819D02*
X125023809Y-79978628D01*
X124785714Y-80454819D02*
X124785714Y-79454819D01*
X124785714Y-79454819D02*
X125166666Y-79454819D01*
X125166666Y-79454819D02*
X125261904Y-79502438D01*
X125261904Y-79502438D02*
X125309523Y-79550057D01*
X125309523Y-79550057D02*
X125357142Y-79645295D01*
X125357142Y-79645295D02*
X125357142Y-79788152D01*
X125357142Y-79788152D02*
X125309523Y-79883390D01*
X125309523Y-79883390D02*
X125261904Y-79931009D01*
X125261904Y-79931009D02*
X125166666Y-79978628D01*
X125166666Y-79978628D02*
X124785714Y-79978628D01*
X126309523Y-80454819D02*
X125738095Y-80454819D01*
X126023809Y-80454819D02*
X126023809Y-79454819D01*
X126023809Y-79454819D02*
X125928571Y-79597676D01*
X125928571Y-79597676D02*
X125833333Y-79692914D01*
X125833333Y-79692914D02*
X125738095Y-79740533D01*
X126785714Y-80454819D02*
X126976190Y-80454819D01*
X126976190Y-80454819D02*
X127071428Y-80407200D01*
X127071428Y-80407200D02*
X127119047Y-80359580D01*
X127119047Y-80359580D02*
X127214285Y-80216723D01*
X127214285Y-80216723D02*
X127261904Y-80026247D01*
X127261904Y-80026247D02*
X127261904Y-79645295D01*
X127261904Y-79645295D02*
X127214285Y-79550057D01*
X127214285Y-79550057D02*
X127166666Y-79502438D01*
X127166666Y-79502438D02*
X127071428Y-79454819D01*
X127071428Y-79454819D02*
X126880952Y-79454819D01*
X126880952Y-79454819D02*
X126785714Y-79502438D01*
X126785714Y-79502438D02*
X126738095Y-79550057D01*
X126738095Y-79550057D02*
X126690476Y-79645295D01*
X126690476Y-79645295D02*
X126690476Y-79883390D01*
X126690476Y-79883390D02*
X126738095Y-79978628D01*
X126738095Y-79978628D02*
X126785714Y-80026247D01*
X126785714Y-80026247D02*
X126880952Y-80073866D01*
X126880952Y-80073866D02*
X127071428Y-80073866D01*
X127071428Y-80073866D02*
X127166666Y-80026247D01*
X127166666Y-80026247D02*
X127214285Y-79978628D01*
X127214285Y-79978628D02*
X127261904Y-79883390D01*
X131454819Y-59738094D02*
X130454819Y-59738094D01*
X130454819Y-59738094D02*
X130454819Y-59499999D01*
X130454819Y-59499999D02*
X130502438Y-59357142D01*
X130502438Y-59357142D02*
X130597676Y-59261904D01*
X130597676Y-59261904D02*
X130692914Y-59214285D01*
X130692914Y-59214285D02*
X130883390Y-59166666D01*
X130883390Y-59166666D02*
X131026247Y-59166666D01*
X131026247Y-59166666D02*
X131216723Y-59214285D01*
X131216723Y-59214285D02*
X131311961Y-59261904D01*
X131311961Y-59261904D02*
X131407200Y-59357142D01*
X131407200Y-59357142D02*
X131454819Y-59499999D01*
X131454819Y-59499999D02*
X131454819Y-59738094D01*
X130550057Y-58785713D02*
X130502438Y-58738094D01*
X130502438Y-58738094D02*
X130454819Y-58642856D01*
X130454819Y-58642856D02*
X130454819Y-58404761D01*
X130454819Y-58404761D02*
X130502438Y-58309523D01*
X130502438Y-58309523D02*
X130550057Y-58261904D01*
X130550057Y-58261904D02*
X130645295Y-58214285D01*
X130645295Y-58214285D02*
X130740533Y-58214285D01*
X130740533Y-58214285D02*
X130883390Y-58261904D01*
X130883390Y-58261904D02*
X131454819Y-58833332D01*
X131454819Y-58833332D02*
X131454819Y-58214285D01*
X131454819Y-65261904D02*
X130454819Y-65261904D01*
X131454819Y-64690476D02*
X130883390Y-65119047D01*
X130454819Y-64690476D02*
X131026247Y-65261904D01*
D12*
%TO.C,R10*%
X145040000Y-88630000D02*
X145040000Y-88960000D01*
X145040000Y-91370000D02*
X145040000Y-91040000D01*
X151580000Y-88630000D02*
X145040000Y-88630000D01*
X151580000Y-88960000D02*
X151580000Y-88630000D01*
X151580000Y-91040000D02*
X151580000Y-91370000D01*
X151580000Y-91370000D02*
X145040000Y-91370000D01*
%TO.C,R24*%
X115460000Y-63500000D02*
X116230000Y-63500000D01*
X123540000Y-63500000D02*
X122770000Y-63500000D01*
X122770000Y-64870000D02*
X116230000Y-64870000D01*
X116230000Y-62130000D01*
X122770000Y-62130000D01*
X122770000Y-64870000D01*
%TO.C,C2*%
X107500000Y-103790000D02*
X107500000Y-104480000D01*
X107500000Y-109210000D02*
X107500000Y-108520000D01*
X106080000Y-108520000D02*
X108920000Y-108520000D01*
X108920000Y-104480000D01*
X106080000Y-104480000D01*
X106080000Y-108520000D01*
%TO.C,R22*%
X115460000Y-60500000D02*
X116230000Y-60500000D01*
X123540000Y-60500000D02*
X122770000Y-60500000D01*
X116230000Y-59130000D02*
X122770000Y-59130000D01*
X122770000Y-61870000D01*
X116230000Y-61870000D01*
X116230000Y-59130000D01*
%TO.C,R11*%
X144040000Y-92130000D02*
X144040000Y-92460000D01*
X144040000Y-94870000D02*
X144040000Y-94540000D01*
X150580000Y-92130000D02*
X144040000Y-92130000D01*
X150580000Y-92460000D02*
X150580000Y-92130000D01*
X150580000Y-94540000D02*
X150580000Y-94870000D01*
X150580000Y-94870000D02*
X144040000Y-94870000D01*
%TO.C,Power1*%
X126345000Y-52880000D02*
X126345000Y-51500000D01*
X127725000Y-52880000D02*
X126345000Y-52880000D01*
X128995000Y-50120000D02*
X131645000Y-50120000D01*
X128995000Y-52880000D02*
X128995000Y-50120000D01*
X128995000Y-52880000D02*
X131645000Y-52880000D01*
X131645000Y-52880000D02*
X131645000Y-50120000D01*
%TO.C,C8*%
X136670000Y-61871395D02*
X144330000Y-61871395D01*
X136670000Y-61911395D02*
X144330000Y-61911395D01*
X136671000Y-61831395D02*
X144329000Y-61831395D01*
X136672000Y-61791395D02*
X144328000Y-61791395D01*
X136673000Y-61751395D02*
X144327000Y-61751395D01*
X136675000Y-61711395D02*
X144325000Y-61711395D01*
X136677000Y-61671395D02*
X139460000Y-61671395D01*
X136680000Y-61631395D02*
X139460000Y-61631395D01*
X136683000Y-61591395D02*
X139460000Y-61591395D01*
X136687000Y-61551395D02*
X139460000Y-61551395D01*
X136691000Y-61511395D02*
X139460000Y-61511395D01*
X136695000Y-61471395D02*
X139460000Y-61471395D01*
X136700000Y-61431395D02*
X139460000Y-61431395D01*
X136705000Y-61391395D02*
X139460000Y-61391395D01*
X136711000Y-61351395D02*
X139460000Y-61351395D01*
X136717000Y-61311395D02*
X139460000Y-61311395D01*
X136723000Y-61271395D02*
X139460000Y-61271395D01*
X136730000Y-61231395D02*
X139460000Y-61231395D01*
X136738000Y-61191395D02*
X139460000Y-61191395D01*
X136745000Y-61151395D02*
X139460000Y-61151395D01*
X136754000Y-61111395D02*
X139460000Y-61111395D01*
X136762000Y-61071395D02*
X139460000Y-61071395D01*
X136771000Y-61031395D02*
X139460000Y-61031395D01*
X136781000Y-60991395D02*
X139460000Y-60991395D01*
X136791000Y-60951395D02*
X139460000Y-60951395D01*
X136801000Y-60911395D02*
X139460000Y-60911395D01*
X136812000Y-60871395D02*
X139460000Y-60871395D01*
X136824000Y-60831395D02*
X139460000Y-60831395D01*
X136836000Y-60791395D02*
X139460000Y-60791395D01*
X136848000Y-60751395D02*
X139460000Y-60751395D01*
X136861000Y-60711395D02*
X139460000Y-60711395D01*
X136874000Y-60671395D02*
X139460000Y-60671395D01*
X136888000Y-60631395D02*
X139460000Y-60631395D01*
X136902000Y-60591395D02*
X139460000Y-60591395D01*
X136917000Y-60551395D02*
X139460000Y-60551395D01*
X136932000Y-60511395D02*
X139460000Y-60511395D01*
X136948000Y-60471395D02*
X139460000Y-60471395D01*
X136964000Y-60431395D02*
X139460000Y-60431395D01*
X136981000Y-60391395D02*
X139460000Y-60391395D01*
X136998000Y-60351395D02*
X139460000Y-60351395D01*
X137016000Y-60311395D02*
X139460000Y-60311395D01*
X137035000Y-60271395D02*
X139460000Y-60271395D01*
X137054000Y-60231395D02*
X139460000Y-60231395D01*
X137073000Y-60191395D02*
X139460000Y-60191395D01*
X137093000Y-60151395D02*
X139460000Y-60151395D01*
X137114000Y-60111395D02*
X139460000Y-60111395D01*
X137135000Y-60071395D02*
X139460000Y-60071395D01*
X137157000Y-60031395D02*
X139460000Y-60031395D01*
X137180000Y-59991395D02*
X139460000Y-59991395D01*
X137203000Y-59951395D02*
X139460000Y-59951395D01*
X137227000Y-59911395D02*
X139460000Y-59911395D01*
X137251000Y-59871395D02*
X139460000Y-59871395D01*
X137276000Y-59831395D02*
X139460000Y-59831395D01*
X137302000Y-59791395D02*
X139460000Y-59791395D01*
X137329000Y-59751395D02*
X139460000Y-59751395D01*
X137356000Y-59711395D02*
X139460000Y-59711395D01*
X137384000Y-59671395D02*
X139460000Y-59671395D01*
X137413000Y-59631395D02*
X139460000Y-59631395D01*
X137443000Y-59591395D02*
X143557000Y-59591395D01*
X137473000Y-59551395D02*
X143527000Y-59551395D01*
X137504000Y-59511395D02*
X143496000Y-59511395D01*
X137536000Y-59471395D02*
X143464000Y-59471395D01*
X137569000Y-59431395D02*
X143431000Y-59431395D01*
X137603000Y-59391395D02*
X143397000Y-59391395D01*
X137638000Y-59351395D02*
X143362000Y-59351395D01*
X137673000Y-59311395D02*
X143327000Y-59311395D01*
X137710000Y-59271395D02*
X143290000Y-59271395D01*
X137748000Y-59231395D02*
X143252000Y-59231395D01*
X137787000Y-59191395D02*
X143213000Y-59191395D01*
X137827000Y-59151395D02*
X143173000Y-59151395D01*
X137869000Y-59111395D02*
X143131000Y-59111395D01*
X137911000Y-59071395D02*
X143089000Y-59071395D01*
X137950000Y-65678606D02*
X138700000Y-65678606D01*
X137955000Y-59031395D02*
X143045000Y-59031395D01*
X138000000Y-58991395D02*
X143000000Y-58991395D01*
X138047000Y-58951395D02*
X142953000Y-58951395D01*
X138095000Y-58911395D02*
X142905000Y-58911395D01*
X138145000Y-58871395D02*
X142855000Y-58871395D01*
X138197000Y-58831395D02*
X142803000Y-58831395D01*
X138250000Y-58791395D02*
X142750000Y-58791395D01*
X138306000Y-58751395D02*
X142694000Y-58751395D01*
X138325000Y-66053606D02*
X138325000Y-65303606D01*
X138364000Y-58711395D02*
X142636000Y-58711395D01*
X138424000Y-58671395D02*
X142576000Y-58671395D01*
X138486000Y-58631395D02*
X142514000Y-58631395D01*
X138551000Y-58591395D02*
X142449000Y-58591395D01*
X138620000Y-58551395D02*
X142380000Y-58551395D01*
X138692000Y-58511395D02*
X142308000Y-58511395D01*
X138767000Y-58471395D02*
X142233000Y-58471395D01*
X138847000Y-58431395D02*
X142153000Y-58431395D01*
X138932000Y-58391395D02*
X142068000Y-58391395D01*
X139022000Y-58351395D02*
X141978000Y-58351395D01*
X139120000Y-58311395D02*
X141880000Y-58311395D01*
X139226000Y-58271395D02*
X141774000Y-58271395D01*
X139342000Y-58231395D02*
X141658000Y-58231395D01*
X139473000Y-58191395D02*
X141527000Y-58191395D01*
X139624000Y-58151395D02*
X141376000Y-58151395D01*
X139807000Y-58111395D02*
X141193000Y-58111395D01*
X140059000Y-58071395D02*
X140941000Y-58071395D01*
X141540000Y-59631395D02*
X143587000Y-59631395D01*
X141540000Y-59671395D02*
X143616000Y-59671395D01*
X141540000Y-59711395D02*
X143644000Y-59711395D01*
X141540000Y-59751395D02*
X143671000Y-59751395D01*
X141540000Y-59791395D02*
X143698000Y-59791395D01*
X141540000Y-59831395D02*
X143724000Y-59831395D01*
X141540000Y-59871395D02*
X143749000Y-59871395D01*
X141540000Y-59911395D02*
X143773000Y-59911395D01*
X141540000Y-59951395D02*
X143797000Y-59951395D01*
X141540000Y-59991395D02*
X143820000Y-59991395D01*
X141540000Y-60031395D02*
X143843000Y-60031395D01*
X141540000Y-60071395D02*
X143865000Y-60071395D01*
X141540000Y-60111395D02*
X143886000Y-60111395D01*
X141540000Y-60151395D02*
X143907000Y-60151395D01*
X141540000Y-60191395D02*
X143927000Y-60191395D01*
X141540000Y-60231395D02*
X143946000Y-60231395D01*
X141540000Y-60271395D02*
X143965000Y-60271395D01*
X141540000Y-60311395D02*
X143984000Y-60311395D01*
X141540000Y-60351395D02*
X144002000Y-60351395D01*
X141540000Y-60391395D02*
X144019000Y-60391395D01*
X141540000Y-60431395D02*
X144036000Y-60431395D01*
X141540000Y-60471395D02*
X144052000Y-60471395D01*
X141540000Y-60511395D02*
X144068000Y-60511395D01*
X141540000Y-60551395D02*
X144083000Y-60551395D01*
X141540000Y-60591395D02*
X144098000Y-60591395D01*
X141540000Y-60631395D02*
X144112000Y-60631395D01*
X141540000Y-60671395D02*
X144126000Y-60671395D01*
X141540000Y-60711395D02*
X144139000Y-60711395D01*
X141540000Y-60751395D02*
X144152000Y-60751395D01*
X141540000Y-60791395D02*
X144164000Y-60791395D01*
X141540000Y-60831395D02*
X144176000Y-60831395D01*
X141540000Y-60871395D02*
X144188000Y-60871395D01*
X141540000Y-60911395D02*
X144199000Y-60911395D01*
X141540000Y-60951395D02*
X144209000Y-60951395D01*
X141540000Y-60991395D02*
X144219000Y-60991395D01*
X141540000Y-61031395D02*
X144229000Y-61031395D01*
X141540000Y-61071395D02*
X144238000Y-61071395D01*
X141540000Y-61111395D02*
X144246000Y-61111395D01*
X141540000Y-61151395D02*
X144255000Y-61151395D01*
X141540000Y-61191395D02*
X144262000Y-61191395D01*
X141540000Y-61231395D02*
X144270000Y-61231395D01*
X141540000Y-61271395D02*
X144277000Y-61271395D01*
X141540000Y-61311395D02*
X144283000Y-61311395D01*
X141540000Y-61351395D02*
X144289000Y-61351395D01*
X141540000Y-61391395D02*
X144295000Y-61391395D01*
X141540000Y-61431395D02*
X144300000Y-61431395D01*
X141540000Y-61471395D02*
X144305000Y-61471395D01*
X141540000Y-61511395D02*
X144309000Y-61511395D01*
X141540000Y-61551395D02*
X144313000Y-61551395D01*
X141540000Y-61591395D02*
X144317000Y-61591395D01*
X141540000Y-61631395D02*
X144320000Y-61631395D01*
X141540000Y-61671395D02*
X144323000Y-61671395D01*
X144370000Y-61911395D02*
G75*
G02*
X136630000Y-61911395I-3870000J0D01*
G01*
X136630000Y-61911395D02*
G75*
G02*
X144370000Y-61911395I3870000J0D01*
G01*
%TO.C,R5*%
X122920000Y-83130000D02*
X129460000Y-83130000D01*
X122920000Y-83460000D02*
X122920000Y-83130000D01*
X122920000Y-85540000D02*
X122920000Y-85870000D01*
X122920000Y-85870000D02*
X129460000Y-85870000D01*
X129460000Y-83130000D02*
X129460000Y-83460000D01*
X129460000Y-85870000D02*
X129460000Y-85540000D01*
%TO.C,In1*%
X150855000Y-50620000D02*
X150855000Y-53380000D01*
X153505000Y-50620000D02*
X150855000Y-50620000D01*
X153505000Y-50620000D02*
X153505000Y-53380000D01*
X153505000Y-53380000D02*
X150855000Y-53380000D01*
X154775000Y-50620000D02*
X156155000Y-50620000D01*
X156155000Y-50620000D02*
X156155000Y-52000000D01*
%TO.C,U3*%
D10*
X120500000Y-106300000D02*
X137500000Y-106300000D01*
X137500000Y-121800000D01*
X120500000Y-121800000D01*
X120500000Y-106300000D01*
D12*
%TO.C,Out1*%
X101120000Y-52880000D02*
X101120000Y-51500000D01*
X102500000Y-52880000D02*
X101120000Y-52880000D01*
X103770000Y-50120000D02*
X106420000Y-50120000D01*
X103770000Y-52880000D02*
X103770000Y-50120000D01*
X103770000Y-52880000D02*
X106420000Y-52880000D01*
X106420000Y-52880000D02*
X106420000Y-50120000D01*
%TO.C,R16*%
X144420000Y-118600000D02*
X145190000Y-118600000D01*
X152500000Y-118600000D02*
X151730000Y-118600000D01*
X145190000Y-117230000D02*
X151730000Y-117230000D01*
X151730000Y-119970000D01*
X145190000Y-119970000D01*
X145190000Y-117230000D01*
%TO.C,R7*%
X144380000Y-122000000D02*
X145150000Y-122000000D01*
X152460000Y-122000000D02*
X151690000Y-122000000D01*
X151690000Y-123370000D02*
X145150000Y-123370000D01*
X145150000Y-120630000D01*
X151690000Y-120630000D01*
X151690000Y-123370000D01*
%TO.C,R3*%
X117630000Y-103040000D02*
X117960000Y-103040000D01*
X117630000Y-109580000D02*
X117630000Y-103040000D01*
X117960000Y-109580000D02*
X117630000Y-109580000D01*
X120040000Y-109580000D02*
X120370000Y-109580000D01*
X120370000Y-103040000D02*
X120040000Y-103040000D01*
X120370000Y-109580000D02*
X120370000Y-103040000D01*
%TO.C,U1*%
X111850000Y-70860000D02*
X111850000Y-81140000D01*
X111850000Y-81140000D02*
X117150000Y-81140000D01*
X113500000Y-70860000D02*
X111850000Y-70860000D01*
X117150000Y-70860000D02*
X115500000Y-70860000D01*
X117150000Y-81140000D02*
X117150000Y-70860000D01*
X109360000Y-70800000D02*
X119640000Y-70800000D01*
X119640000Y-81200000D01*
X109360000Y-81200000D01*
X109360000Y-70800000D01*
X115500000Y-70860000D02*
G75*
G02*
X113500000Y-70860000I-1000000J0D01*
G01*
%TO.C,R_trim1*%
X138122000Y-55526000D02*
G75*
G02*
X138122000Y-52464000I2877010J1531000D01*
G01*
X139469000Y-51117000D02*
G75*
G02*
X144159000Y-53191000I1531413J-2876790D01*
G01*
X144159000Y-54799000D02*
G75*
G02*
X139469000Y-56873000I-3158587J802790D01*
G01*
%TO.C,R14*%
X117500000Y-90960000D02*
X117500000Y-91730000D01*
X117500000Y-99040000D02*
X117500000Y-98270000D01*
X116130000Y-98270000D02*
X118870000Y-98270000D01*
X118870000Y-91730000D01*
X116130000Y-91730000D01*
X116130000Y-98270000D01*
%TO.C,C1*%
X123540000Y-94500000D02*
X124230000Y-94500000D01*
X128960000Y-94500000D02*
X128270000Y-94500000D01*
X124230000Y-93080000D02*
X128270000Y-93080000D01*
X128270000Y-95920000D01*
X124230000Y-95920000D01*
X124230000Y-93080000D01*
%TO.C,R2*%
X107500000Y-90960000D02*
X107500000Y-91730000D01*
X107500000Y-99040000D02*
X107500000Y-98270000D01*
X106130000Y-98270000D02*
X108870000Y-98270000D01*
X108870000Y-91730000D01*
X106130000Y-91730000D01*
X106130000Y-98270000D01*
%TO.C,R6*%
X141420000Y-99630000D02*
X147960000Y-99630000D01*
X141420000Y-99960000D02*
X141420000Y-99630000D01*
X141420000Y-102040000D02*
X141420000Y-102370000D01*
X141420000Y-102370000D02*
X147960000Y-102370000D01*
X147960000Y-99630000D02*
X147960000Y-99960000D01*
X147960000Y-102370000D02*
X147960000Y-102040000D01*
%TO.C,C4*%
X146500000Y-62540000D02*
X146500000Y-63230000D01*
X146500000Y-67960000D02*
X146500000Y-67270000D01*
X145080000Y-67270000D02*
X147920000Y-67270000D01*
X147920000Y-63230000D01*
X145080000Y-63230000D01*
X145080000Y-67270000D01*
%TO.C,C10*%
X117410000Y-54941000D02*
X117410000Y-54059000D01*
X117450000Y-55193000D02*
X117450000Y-53807000D01*
X117490000Y-55376000D02*
X117490000Y-53624000D01*
X117530000Y-55527000D02*
X117530000Y-53473000D01*
X117570000Y-55658000D02*
X117570000Y-53342000D01*
X117610000Y-55774000D02*
X117610000Y-53226000D01*
X117650000Y-55880000D02*
X117650000Y-53120000D01*
X117690000Y-55978000D02*
X117690000Y-53022000D01*
X117730000Y-56068000D02*
X117730000Y-52932000D01*
X117770000Y-56153000D02*
X117770000Y-52847000D01*
X117810000Y-56233000D02*
X117810000Y-52767000D01*
X117850000Y-56308000D02*
X117850000Y-52692000D01*
X117890000Y-56380000D02*
X117890000Y-52620000D01*
X117930000Y-56449000D02*
X117930000Y-52551000D01*
X117970000Y-56514000D02*
X117970000Y-52486000D01*
X118010000Y-56576000D02*
X118010000Y-52424000D01*
X118050000Y-56636000D02*
X118050000Y-52364000D01*
X118090000Y-56694000D02*
X118090000Y-52306000D01*
X118130000Y-56750000D02*
X118130000Y-52250000D01*
X118170000Y-56803000D02*
X118170000Y-52197000D01*
X118210000Y-56855000D02*
X118210000Y-52145000D01*
X118250000Y-56905000D02*
X118250000Y-52095000D01*
X118290000Y-56953000D02*
X118290000Y-52047000D01*
X118330000Y-57000000D02*
X118330000Y-52000000D01*
X118370000Y-57045000D02*
X118370000Y-51955000D01*
X118410000Y-57089000D02*
X118410000Y-51911000D01*
X118450000Y-57131000D02*
X118450000Y-51869000D01*
X118490000Y-57173000D02*
X118490000Y-51827000D01*
X118530000Y-57213000D02*
X118530000Y-51787000D01*
X118570000Y-57252000D02*
X118570000Y-51748000D01*
X118610000Y-57290000D02*
X118610000Y-51710000D01*
X118650000Y-57327000D02*
X118650000Y-51673000D01*
X118690000Y-57362000D02*
X118690000Y-51638000D01*
X118730000Y-57397000D02*
X118730000Y-51603000D01*
X118770000Y-57431000D02*
X118770000Y-51569000D01*
X118810000Y-57464000D02*
X118810000Y-51536000D01*
X118850000Y-57496000D02*
X118850000Y-51504000D01*
X118890000Y-57527000D02*
X118890000Y-51473000D01*
X118930000Y-57557000D02*
X118930000Y-51443000D01*
X118970000Y-53460000D02*
X118970000Y-51413000D01*
X118970000Y-57587000D02*
X118970000Y-55540000D01*
X119010000Y-53460000D02*
X119010000Y-51384000D01*
X119010000Y-57616000D02*
X119010000Y-55540000D01*
X119050000Y-53460000D02*
X119050000Y-51356000D01*
X119050000Y-57644000D02*
X119050000Y-55540000D01*
X119090000Y-53460000D02*
X119090000Y-51329000D01*
X119090000Y-57671000D02*
X119090000Y-55540000D01*
X119130000Y-53460000D02*
X119130000Y-51302000D01*
X119130000Y-57698000D02*
X119130000Y-55540000D01*
X119170000Y-53460000D02*
X119170000Y-51276000D01*
X119170000Y-57724000D02*
X119170000Y-55540000D01*
X119210000Y-53460000D02*
X119210000Y-51251000D01*
X119210000Y-57749000D02*
X119210000Y-55540000D01*
X119250000Y-53460000D02*
X119250000Y-51227000D01*
X119250000Y-57773000D02*
X119250000Y-55540000D01*
X119290000Y-53460000D02*
X119290000Y-51203000D01*
X119290000Y-57797000D02*
X119290000Y-55540000D01*
X119330000Y-53460000D02*
X119330000Y-51180000D01*
X119330000Y-57820000D02*
X119330000Y-55540000D01*
X119370000Y-53460000D02*
X119370000Y-51157000D01*
X119370000Y-57843000D02*
X119370000Y-55540000D01*
X119410000Y-53460000D02*
X119410000Y-51135000D01*
X119410000Y-57865000D02*
X119410000Y-55540000D01*
X119450000Y-53460000D02*
X119450000Y-51114000D01*
X119450000Y-57886000D02*
X119450000Y-55540000D01*
X119490000Y-53460000D02*
X119490000Y-51093000D01*
X119490000Y-57907000D02*
X119490000Y-55540000D01*
X119530000Y-53460000D02*
X119530000Y-51073000D01*
X119530000Y-57927000D02*
X119530000Y-55540000D01*
X119570000Y-53460000D02*
X119570000Y-51054000D01*
X119570000Y-57946000D02*
X119570000Y-55540000D01*
X119610000Y-53460000D02*
X119610000Y-51035000D01*
X119610000Y-57965000D02*
X119610000Y-55540000D01*
X119650000Y-53460000D02*
X119650000Y-51016000D01*
X119650000Y-57984000D02*
X119650000Y-55540000D01*
X119690000Y-53460000D02*
X119690000Y-50998000D01*
X119690000Y-58002000D02*
X119690000Y-55540000D01*
X119730000Y-53460000D02*
X119730000Y-50981000D01*
X119730000Y-58019000D02*
X119730000Y-55540000D01*
X119770000Y-53460000D02*
X119770000Y-50964000D01*
X119770000Y-58036000D02*
X119770000Y-55540000D01*
X119810000Y-53460000D02*
X119810000Y-50948000D01*
X119810000Y-58052000D02*
X119810000Y-55540000D01*
X119850000Y-53460000D02*
X119850000Y-50932000D01*
X119850000Y-58068000D02*
X119850000Y-55540000D01*
X119890000Y-53460000D02*
X119890000Y-50917000D01*
X119890000Y-58083000D02*
X119890000Y-55540000D01*
X119930000Y-53460000D02*
X119930000Y-50902000D01*
X119930000Y-58098000D02*
X119930000Y-55540000D01*
X119970000Y-53460000D02*
X119970000Y-50888000D01*
X119970000Y-58112000D02*
X119970000Y-55540000D01*
X120010000Y-53460000D02*
X120010000Y-50874000D01*
X120010000Y-58126000D02*
X120010000Y-55540000D01*
X120050000Y-53460000D02*
X120050000Y-50861000D01*
X120050000Y-58139000D02*
X120050000Y-55540000D01*
X120090000Y-53460000D02*
X120090000Y-50848000D01*
X120090000Y-58152000D02*
X120090000Y-55540000D01*
X120130000Y-53460000D02*
X120130000Y-50836000D01*
X120130000Y-58164000D02*
X120130000Y-55540000D01*
X120170000Y-53460000D02*
X120170000Y-50824000D01*
X120170000Y-58176000D02*
X120170000Y-55540000D01*
X120210000Y-53460000D02*
X120210000Y-50812000D01*
X120210000Y-58188000D02*
X120210000Y-55540000D01*
X120250000Y-53460000D02*
X120250000Y-50801000D01*
X120250000Y-58199000D02*
X120250000Y-55540000D01*
X120290000Y-53460000D02*
X120290000Y-50791000D01*
X120290000Y-58209000D02*
X120290000Y-55540000D01*
X120330000Y-53460000D02*
X120330000Y-50781000D01*
X120330000Y-58219000D02*
X120330000Y-55540000D01*
X120370000Y-53460000D02*
X120370000Y-50771000D01*
X120370000Y-58229000D02*
X120370000Y-55540000D01*
X120410000Y-53460000D02*
X120410000Y-50762000D01*
X120410000Y-58238000D02*
X120410000Y-55540000D01*
X120450000Y-53460000D02*
X120450000Y-50754000D01*
X120450000Y-58246000D02*
X120450000Y-55540000D01*
X120490000Y-53460000D02*
X120490000Y-50745000D01*
X120490000Y-58255000D02*
X120490000Y-55540000D01*
X120530000Y-53460000D02*
X120530000Y-50738000D01*
X120530000Y-58262000D02*
X120530000Y-55540000D01*
X120570000Y-53460000D02*
X120570000Y-50730000D01*
X120570000Y-58270000D02*
X120570000Y-55540000D01*
X120610000Y-53460000D02*
X120610000Y-50723000D01*
X120610000Y-58277000D02*
X120610000Y-55540000D01*
X120650000Y-53460000D02*
X120650000Y-50717000D01*
X120650000Y-58283000D02*
X120650000Y-55540000D01*
X120690000Y-53460000D02*
X120690000Y-50711000D01*
X120690000Y-58289000D02*
X120690000Y-55540000D01*
X120730000Y-53460000D02*
X120730000Y-50705000D01*
X120730000Y-58295000D02*
X120730000Y-55540000D01*
X120770000Y-53460000D02*
X120770000Y-50700000D01*
X120770000Y-58300000D02*
X120770000Y-55540000D01*
X120810000Y-53460000D02*
X120810000Y-50695000D01*
X120810000Y-58305000D02*
X120810000Y-55540000D01*
X120850000Y-53460000D02*
X120850000Y-50691000D01*
X120850000Y-58309000D02*
X120850000Y-55540000D01*
X120890000Y-53460000D02*
X120890000Y-50687000D01*
X120890000Y-58313000D02*
X120890000Y-55540000D01*
X120930000Y-53460000D02*
X120930000Y-50683000D01*
X120930000Y-58317000D02*
X120930000Y-55540000D01*
X120970000Y-53460000D02*
X120970000Y-50680000D01*
X120970000Y-58320000D02*
X120970000Y-55540000D01*
X121010000Y-53460000D02*
X121010000Y-50677000D01*
X121010000Y-58323000D02*
X121010000Y-55540000D01*
X121050000Y-58325000D02*
X121050000Y-50675000D01*
X121090000Y-58327000D02*
X121090000Y-50673000D01*
X121130000Y-58328000D02*
X121130000Y-50672000D01*
X121170000Y-58329000D02*
X121170000Y-50671000D01*
X121210000Y-58330000D02*
X121210000Y-50670000D01*
X121250000Y-58330000D02*
X121250000Y-50670000D01*
X125017211Y-57050000D02*
X125017211Y-56300000D01*
X125392211Y-56675000D02*
X124642211Y-56675000D01*
X125120000Y-54500000D02*
G75*
G02*
X117380000Y-54500000I-3870000J0D01*
G01*
X117380000Y-54500000D02*
G75*
G02*
X125120000Y-54500000I3870000J0D01*
G01*
%TO.C,R4*%
X111500000Y-101460000D02*
X111500000Y-102230000D01*
X111500000Y-109540000D02*
X111500000Y-108770000D01*
X110130000Y-108770000D02*
X112870000Y-108770000D01*
X112870000Y-102230000D01*
X110130000Y-102230000D01*
X110130000Y-108770000D01*
%TO.C,R8*%
X145960000Y-85500000D02*
X146730000Y-85500000D01*
X154040000Y-85500000D02*
X153270000Y-85500000D01*
X146730000Y-84130000D02*
X153270000Y-84130000D01*
X153270000Y-86870000D01*
X146730000Y-86870000D01*
X146730000Y-84130000D01*
%TO.C,D1*%
X133780000Y-60580000D02*
X136020000Y-60580000D01*
X133780000Y-60700000D02*
X136020000Y-60700000D01*
X133780000Y-60820000D02*
X136020000Y-60820000D01*
X134900000Y-56530000D02*
X134900000Y-57180000D01*
X134900000Y-62070000D02*
X134900000Y-61420000D01*
X133780000Y-61420000D02*
X136020000Y-61420000D01*
X136020000Y-57180000D01*
X133780000Y-57180000D01*
X133780000Y-61420000D01*
%TO.C,LED_R1*%
X126230000Y-100630000D02*
X126230000Y-100960000D01*
X126230000Y-103370000D02*
X126230000Y-103040000D01*
X132770000Y-100630000D02*
X126230000Y-100630000D01*
X132770000Y-100960000D02*
X132770000Y-100630000D01*
X132770000Y-103040000D02*
X132770000Y-103370000D01*
X132770000Y-103370000D02*
X126230000Y-103370000D01*
%TO.C,Q2*%
X141080000Y-106120000D02*
X141080000Y-108880000D01*
X146270000Y-106120000D02*
X141080000Y-106120000D01*
X146270000Y-106120000D02*
X146270000Y-108880000D01*
X146270000Y-108880000D02*
X141080000Y-108880000D01*
X147540000Y-106120000D02*
X148920000Y-106120000D01*
X148920000Y-106120000D02*
X148920000Y-107500000D01*
%TO.C,C7*%
X122040000Y-76500000D02*
X122730000Y-76500000D01*
X127460000Y-76500000D02*
X126770000Y-76500000D01*
X122730000Y-75080000D02*
X126770000Y-75080000D01*
X126770000Y-77920000D01*
X122730000Y-77920000D01*
X122730000Y-75080000D01*
%TO.C,R15*%
X126130000Y-55730000D02*
X126130000Y-62270000D01*
X126130000Y-62270000D02*
X126460000Y-62270000D01*
X126460000Y-55730000D02*
X126130000Y-55730000D01*
X128540000Y-55730000D02*
X128870000Y-55730000D01*
X128870000Y-55730000D02*
X128870000Y-62270000D01*
X128870000Y-62270000D02*
X128540000Y-62270000D01*
%TO.C,C5*%
X115500000Y-103600000D02*
X115500000Y-104290000D01*
X115500000Y-109020000D02*
X115500000Y-108330000D01*
X114080000Y-108330000D02*
X116920000Y-108330000D01*
X116920000Y-104290000D01*
X114080000Y-104290000D01*
X114080000Y-108330000D01*
%TO.C,R21*%
X131500000Y-67960000D02*
X131500000Y-68730000D01*
X131500000Y-76040000D02*
X131500000Y-75270000D01*
X130130000Y-75270000D02*
X132870000Y-75270000D01*
X132870000Y-68730000D01*
X130130000Y-68730000D01*
X130130000Y-75270000D01*
%TO.C,Potentiometer1*%
X121080000Y-68380000D02*
X121080000Y-67000000D01*
X122460000Y-68380000D02*
X121080000Y-68380000D01*
X123730000Y-65620000D02*
X128920000Y-65620000D01*
X123730000Y-68380000D02*
X123730000Y-65620000D01*
X123730000Y-68380000D02*
X128920000Y-68380000D01*
X128920000Y-68380000D02*
X128920000Y-65620000D01*
%TO.C,R1*%
X123230000Y-89630000D02*
X129770000Y-89630000D01*
X123230000Y-89960000D02*
X123230000Y-89630000D01*
X123230000Y-92040000D02*
X123230000Y-92370000D01*
X123230000Y-92370000D02*
X129770000Y-92370000D01*
X129770000Y-89630000D02*
X129770000Y-89960000D01*
X129770000Y-92370000D02*
X129770000Y-92040000D01*
%TO.C,R20*%
X145130000Y-52040000D02*
X145460000Y-52040000D01*
X145130000Y-58580000D02*
X145130000Y-52040000D01*
X145460000Y-58580000D02*
X145130000Y-58580000D01*
X147540000Y-58580000D02*
X147870000Y-58580000D01*
X147870000Y-52040000D02*
X147540000Y-52040000D01*
X147870000Y-58580000D02*
X147870000Y-52040000D01*
%TO.C,U2*%
X134350000Y-87360000D02*
X134350000Y-97640000D01*
X134350000Y-97640000D02*
X139650000Y-97640000D01*
X136000000Y-87360000D02*
X134350000Y-87360000D01*
X139650000Y-87360000D02*
X138000000Y-87360000D01*
X139650000Y-97640000D02*
X139650000Y-87360000D01*
X131860000Y-87300000D02*
X142140000Y-87300000D01*
X142140000Y-97700000D01*
X131860000Y-97700000D01*
X131860000Y-87300000D01*
X138000000Y-87360000D02*
G75*
G02*
X136000000Y-87360000I-1000000J0D01*
G01*
%TO.C,C3*%
X134290000Y-84000000D02*
X134980000Y-84000000D01*
X139710000Y-84000000D02*
X139020000Y-84000000D01*
X134980000Y-82580000D02*
X139020000Y-82580000D01*
X139020000Y-85420000D01*
X134980000Y-85420000D01*
X134980000Y-82580000D01*
%TO.C,Q5*%
X155030000Y-109150000D02*
X151430000Y-109150000D01*
X153230000Y-113600000D02*
G75*
G02*
X151391522Y-109161522I0J2600000D01*
G01*
X155068478Y-109161522D02*
G75*
G02*
X153230000Y-113600001I-1838478J-1838478D01*
G01*
%TO.C,D3*%
X135500000Y-103400000D02*
X136500000Y-103400000D01*
%TO.C,Q3*%
X137080000Y-80880000D02*
X137080000Y-79500000D01*
X138460000Y-80880000D02*
X137080000Y-80880000D01*
X139730000Y-78120000D02*
X144920000Y-78120000D01*
X139730000Y-80880000D02*
X139730000Y-78120000D01*
X139730000Y-80880000D02*
X144920000Y-80880000D01*
X144920000Y-80880000D02*
X144920000Y-78120000D01*
%TO.C,R25*%
X144230000Y-95130000D02*
X150770000Y-95130000D01*
X144230000Y-95460000D02*
X144230000Y-95130000D01*
X144230000Y-97540000D02*
X144230000Y-97870000D01*
X144230000Y-97870000D02*
X150770000Y-97870000D01*
X150770000Y-95130000D02*
X150770000Y-95460000D01*
X150770000Y-97870000D02*
X150770000Y-97540000D01*
%TO.C,R19*%
X121960000Y-80000000D02*
X122730000Y-80000000D01*
X130040000Y-80000000D02*
X129270000Y-80000000D01*
X129270000Y-81370000D02*
X122730000Y-81370000D01*
X122730000Y-78630000D01*
X129270000Y-78630000D01*
X129270000Y-81370000D01*
%TO.C,D2*%
X129530000Y-56280000D02*
X129660000Y-56280000D01*
X129530000Y-60700000D02*
X132470000Y-60700000D01*
X129530000Y-60820000D02*
X132470000Y-60820000D01*
X129530000Y-60940000D02*
X132470000Y-60940000D01*
X129530000Y-61720000D02*
X129530000Y-56280000D01*
X129660000Y-61720000D02*
X129530000Y-61720000D01*
X132340000Y-61720000D02*
X132470000Y-61720000D01*
X132470000Y-56280000D02*
X132340000Y-56280000D01*
X132470000Y-61720000D02*
X132470000Y-56280000D01*
%TD*%
M02*
